SplineFontDB: 3.0
FontName: Monda-Medium
FullName: Monda Medium
FamilyName: Monda Medium
Weight: Normal
Version: 1.000;PS (version unavailable);hotconv 1.0.57;makeotf.lib2.0.21895 DEVELOPMENT
ItalicAngle: 0
UnderlinePosition: 0
UnderlineWidth: 0
Ascent: 1638
Descent: 410
UFOAscent: 1506
UFODescent: -695
LayerCount: 2
Layer: 0 0 "Back"  1
Layer: 1 0 "Fore"  0
OS2Version: 0
OS2_WeightWidthSlopeOnly: 0
OS2_UseTypoMetrics: 0
CreationTime: 1353969217
ModificationTime: 1353969375
PfmFamily: 0
TTFWeight: 400
TTFWidth: 5
LineGap: 0
VLineGap: 0
Panose: 2 0 6 3 0 0 0 0 0 0
OS2TypoAscent: 0
OS2TypoAOffset: 1
OS2TypoDescent: 0
OS2TypoDOffset: 1
OS2TypoLinegap: 0
OS2WinAscent: 1946
OS2WinAOffset: 0
OS2WinDescent: 695
OS2WinDOffset: 0
HheadAscent: 1946
HheadAOffset: 0
HheadDescent: -695
HheadDOffset: 0
OS2SubXSize: 1331
OS2SubYSize: 1433
OS2SubXOff: 0
OS2SubYOff: 286
OS2SupXSize: 1331
OS2SupYSize: 1433
OS2SupXOff: 0
OS2SupYOff: 983
OS2StrikeYSize: 102
OS2StrikeYPos: 530
OS2Vendor: 'newt'
OS2CodePages: 00000001.00000000
OS2UnicodeRanges: 00000000.00000000.00000000.00000000
Lookup: 258 0 0 "'kern' Horizontal Kerning in Latin lookup 0"  {"'kern' Horizontal Kerning in Latin lookup 0 subtable"  } ['kern' ('latn' <'dflt' > ) ]
DEI: 91125
LangName: 1033 "" "" "" "1.000;newt;Monda-Medium" "" "Version 1.000;PS (version unavailable);hotconv 1.0.57;makeotf.lib2.0.21895 DEVELOPMENT" "" "" "" "" "" "" "" "Copyright (c) 2012, vern (<URL|email>),+AAoA-with Reserved Font Name Monda Medium.+AAoACgAA-This Font Software is licensed under the SIL Open Font License, Version 1.1.+AAoA-This license is copied below, and is also available with a FAQ at:+AAoA-http://scripts.sil.org/OFL" "http://scripts.sil.org/OFL" 
PickledData: "(dp1
S'com.typemytype.robofont.foreground.layerStrokeColor'
p2
(F0.5
F0
F0.5
F0.69999999999999996
tp3
sS'com.schriftgestaltung.fontMasterID'
p4
S'F85E8FEC-B3CD-4A54-BF30-AB1986ECE904'
p5
sS'com.typemytype.robofont.b.layerStrokeColor'
p6
(F1
F0.75
F0
F0.69999999999999996
tp7

StartChar: A
Encoding: 65 65 0
Width: 1428
VWidth: 0
Flags: W
LayerCount: 2
Fore
SplineSet
86 0 m 1
 295 0 l 1
 394 282 l 1
 1039 282 l 1
 1137 0 l 1
 1342 0 l 1
 802 1446 l 1
 625 1446 l 1
 86 0 l 1
442 425 m 1
 719 1216 l 1
 993 425 l 1
 442 425 l 1
714 0 m 0
1285 10 m 0
EndSplineSet
EndChar

StartChar: AE
Encoding: 198 198 1
Width: 1686
VWidth: 0
Flags: W
LayerCount: 2
Fore
SplineSet
302 0 m 1
 375 282 l 1
 874 282 l 1
 874 0 l 1
 1559 0 l 1
 1559 150 l 1
 1065 150 l 1
 1065 664 l 1
 1489 664 l 1
 1489 814 l 1
 1065 814 l 1
 1065 1296 l 1
 1550 1296 l 1
 1550 1446 l 1
 492 1449 l 1
 98 3 l 1
 302 0 l 1
411 417 m 1
 632 1296 l 1
 874 1296 l 1
 874 417 l 1
 411 417 l 1
843 0 m 0
EndSplineSet
EndChar

StartChar: B
Encoding: 66 66 11
Width: 1420
VWidth: 0
Flags: W
LayerCount: 2
Fore
SplineSet
218 0 m 1
 786 0 l 2
 1138 0 1292 124 1292 411 c 0
 1292 595 1209 735 1040 773 c 1
 1174 819 1219 922 1222 1049 c 1
 1222 1301 1143 1446 742 1446 c 2
 218 1446 l 1
 218 0 l 1
420 149 m 1
 420 696 l 1
 820 696 l 2
 1041 696 1094 565 1094 433 c 0
 1094 197 995 149 771 149 c 2
 420 149 l 1
420 833 m 1
 420 1295 l 1
 711 1295 l 2
 955 1295 1021 1256 1021 1047 c 0
 1021 917 973 833 791 833 c 2
 420 833 l 1
EndSplineSet
EndChar

StartChar: C
Encoding: 67 67 12
Width: 1456
VWidth: 0
Flags: W
PickledData: "(dp1
S'com.typemytype.robofont.layerData'
p2
(dp3
S'b'
(dp4
S'name'
p5
S'C'
sS'lib'
p6
(dp7
sS'unicodes'
p8
(tsS'width'
p9
I1456
sS'contours'
p10
(tsS'components'
p11
(tsS'anchors'
p12
(tsss."
LayerCount: 2
Fore
SplineSet
761 -22 m 0
 1226 -22 1300 161 1300 458 c 2
 1300 522 l 1
 1109 522 l 1
 1109 473 l 2
 1109 192 1023 140 765 140 c 0
 509 140 384 199 384 455 c 2
 384 977 l 2
 384 1234 505 1306 759 1306 c 0
 1025 1306 1109 1244 1109 957 c 2
 1109 927 l 1
 1300 953 l 1
 1300 974 l 2
 1300 1280 1203 1468 759 1468 c 0
 274 1468 182 1246 182 940 c 2
 182 486 l 2
 182 185 278 -22 761 -22 c 0
728 0 m 0
728 0 m 0
EndSplineSet
EndChar

StartChar: D
Encoding: 68 68 18
Width: 1522
VWidth: 0
Flags: W
LayerCount: 2
Fore
SplineSet
420 150 m 1
 420 1295 l 1
 774 1295 l 2
 980 1295 1139 1238 1139 971 c 2
 1139 462 l 2
 1139 196 982 150 774 150 c 2
 420 150 l 1
218 0 m 1
 794 0 l 2
 1161 0 1340 169 1340 482 c 2
 1340 959 l 2
 1340 1235 1193 1446 792 1446 c 2
 218 1446 l 1
 218 0 l 1
761 0 m 0
761 0 m 0
EndSplineSet
EndChar

StartChar: Dcroat
Encoding: 272 272 20
Width: 1215
VWidth: 0
Flags: W
PickledData: "(dp1
S'com.typemytype.robofont.layerData'
p2
(dp3
S'b'
(dp4
S'name'
p5
S'Dcroat'
p6
sS'lib'
p7
(dp8
sS'unicodes'
p9
(tsS'width'
p10
I1215
sS'contours'
p11
(tsS'components'
p12
(tsS'anchors'
p13
(tsss."
LayerCount: 2
Fore
SplineSet
76 698 m 1
 778 698 l 1
 778 849 l 1
 76 849 l 1
 76 698 l 1
EndSplineSet
Refer: 18 68 N 1 0 0 1 0 0 2
EndChar

StartChar: E
Encoding: 69 69 21
Width: 1255
VWidth: 0
Flags: W
LayerCount: 2
Fore
SplineSet
218 0 m 1
 1133 0 l 1
 1133 150 l 1
 419 150 l 1
 419 670 l 1
 1039 670 l 1
 1039 820 l 1
 419 820 l 1
 419 1296 l 1
 1121 1296 l 1
 1121 1446 l 1
 218 1446 l 1
 218 0 l 1
628 0 m 0
628 0 m 0
1129 10 m 0
EndSplineSet
EndChar

StartChar: Eng
Encoding: 330 330 30
Width: 1594
VWidth: 0
Flags: W
LayerCount: 2
Fore
SplineSet
827 -373 m 1
 1158 -373 1376 -259 1376 122 c 2
 1376 1446 l 1
 1199 1446 l 1
 1199 470 l 1
 371 1446 l 1
 218 1446 l 1
 218 0 l 1
 395 0 l 1
 395 1104 l 1
 1188 190.369 l 1
 1188 115 l 2
 1188 -197 1043 -210 799 -232 c 1
 827 -373 l 1
EndSplineSet
EndChar

StartChar: Eth
Encoding: 208 208 32
Width: 1215
VWidth: 0
Flags: W
PickledData: "(dp1
S'com.typemytype.robofont.layerData'
p2
(dp3
S'b'
(dp4
S'name'
p5
S'Eth'
p6
sS'lib'
p7
(dp8
sS'unicodes'
p9
(tsS'width'
p10
I1215
sS'contours'
p11
(tsS'components'
p12
(tsS'anchors'
p13
(tsss."
LayerCount: 2
Fore
SplineSet
76 698 m 1
 778 698 l 1
 778 849 l 1
 76 849 l 1
 76 698 l 1
EndSplineSet
Refer: 18 68 N 1 0 0 1 0 0 2
EndChar

StartChar: Euro
Encoding: 8364 8364 33
Width: 1460
VWidth: 0
Flags: W
PickledData: "(dp1
S'com.typemytype.robofont.layerData'
p2
(dp3
S'b'
(dp4
S'name'
p5
S'Euro'
p6
sS'lib'
p7
(dp8
sS'unicodes'
p9
(tsS'width'
p10
I1460
sS'contours'
p11
(tsS'components'
p12
(tsS'anchors'
p13
(tsss."
LayerCount: 2
Fore
SplineSet
1 505 m 1
 743 505 l 1
 743 639 l 1
 1 639 l 1
 1 505 l 1
1 819 m 1
 743 819 l 1
 743 953 l 1
 1 953 l 1
 1 819 l 1
EndSplineSet
Refer: 12 67 N 1 0 0 1 0 0 2
EndChar

StartChar: F
Encoding: 70 70 34
Width: 1159
VWidth: 0
Flags: W
LayerCount: 2
Fore
SplineSet
218 0 m 1
 419 0 l 1
 419 664 l 1
 1003 664 l 1
 1003 814 l 1
 419 814 l 1
 419 1296 l 1
 1039 1296 l 1
 1039 1446 l 1
 218 1446 l 1
 218 0 l 1
EndSplineSet
EndChar

StartChar: G
Encoding: 71 71 35
Width: 1544
VWidth: 0
Flags: W
LayerCount: 2
Fore
SplineSet
788 -22 m 0
 1074 -22 1201 89 1225 246 c 1
 1250 0 l 1
 1360 0 l 1
 1360 735 l 1
 815 735 l 1
 815 588 l 1
 1158 588 l 1
 1158 455 l 2
 1158 199 1046 140 788 140 c 0
 532 140 388 199 388 455 c 2
 388 977 l 2
 388 1234 534 1306 788 1306 c 0
 1044 1306 1160 1261 1160 1004 c 2
 1160 950 l 1
 1355 980 l 1
 1355 997 l 2
 1355 1253 1255 1468 788 1468 c 0
 303 1468 186 1246 186 940 c 2
 186 486 l 2
 186 185 305 -22 788 -22 c 0
772 0 m 0
772 0 m 0
EndSplineSet
EndChar

StartChar: H
Encoding: 72 72 40
Width: 1528
VWidth: 0
Flags: W
PickledData: "(dp1
S'com.typemytype.robofont.layerData'
p2
(dp3
S'b'
(dp4
S'name'
p5
S'H'
sS'lib'
p6
(dp7
sS'unicodes'
p8
(tsS'width'
p9
I1528
sS'contours'
p10
(tsS'components'
p11
(tsS'anchors'
p12
(tsss."
LayerCount: 2
Fore
SplineSet
212 0 m 1
 413 0 l 1
 413 659 l 1
 1115 659 l 1
 1115 0 l 1
 1316 0 l 1
 1316 1446 l 1
 1115 1446 l 1
 1115 807 l 1
 413 807 l 1
 413 1446 l 1
 212 1446 l 1
 212 0 l 1
764 0 m 0
764 0 m 0
EndSplineSet
EndChar

StartChar: Hbar
Encoding: 294 294 41
Width: 1536
VWidth: 0
Flags: W
PickledData: "(dp1
S'com.typemytype.robofont.layerData'
p2
(dp3
S'b'
(dp4
S'name'
p5
S'Hbar'
p6
sS'lib'
p7
(dp8
sS'unicodes'
p9
(tsS'width'
p10
I1536
sS'contours'
p11
(tsS'components'
p12
(tsS'anchors'
p13
(tsss."
LayerCount: 2
Fore
SplineSet
144 1060 m 1
 1392 1060 l 1
 1392 1184 l 1
 144 1184 l 1
 144 1060 l 1
EndSplineSet
Refer: 40 72 N 1 0 0 1 0 0 2
EndChar

StartChar: I
Encoding: 73 73 43
Width: 1132
VWidth: 0
Flags: W
LayerCount: 2
Fore
SplineSet
190 0 m 1
 942 0 l 1
 942 150 l 1
 667 150 l 1
 667 1297 l 1
 942 1297 l 1
 942 1446 l 1
 190 1446 l 1
 190 1297 l 1
 466 1297 l 1
 466 150 l 1
 190 150 l 1
 190 0 l 1
566 0 m 0
1019 10 m 0
EndSplineSet
EndChar

StartChar: J
Encoding: 74 74 54
Width: 1206
VWidth: 0
Flags: W
LayerCount: 2
Fore
SplineSet
522 -17 m 0
 847 -17 988 157 988 431 c 2
 988 1446 l 1
 234 1446 l 1
 234 1281 l 1
 787 1281 l 1
 787 435 l 2
 787 248 707 148 516 148 c 0
 370 148 204 203 157 225 c 1
 102 70 l 1
 167 36 354 -17 522 -17 c 0
603 0 m 0
EndSplineSet
EndChar

StartChar: K
Encoding: 75 75 56
Width: 1418
VWidth: 0
Flags: W
LayerCount: 2
Fore
SplineSet
218 0 m 1
 419 0 l 1
 419 468 l 1
 637 690 l 1
 1127 0 l 1
 1350 0 l 1
 778 798 l 1
 1321 1446 l 1
 1103 1446 l 1
 875 1183 641 927 419 657 c 1
 419 1446 l 1
 218 1446 l 1
 218 0 l 1
709 0 m 0
709 0 m 0
EndSplineSet
EndChar

StartChar: L
Encoding: 76 76 58
Width: 1145
VWidth: 0
Flags: W
LayerCount: 2
Fore
SplineSet
218 0 m 1
 1068 0 l 1
 1068 155 l 1
 419 155 l 1
 419 1446 l 1
 218 1446 l 1
 218 0 l 1
573 0 m 0
573 0 m 0
EndSplineSet
EndChar

StartChar: Lslash
Encoding: 321 321 63
Width: 1145
VWidth: 0
Flags: W
LayerCount: 2
Fore
SplineSet
52 616 m 1
 826 1002 l 1
 826 1126 l 1
 52 740 l 1
 52 616 l 1
EndSplineSet
Refer: 58 76 N 1 0 0 1 0 0 2
EndChar

StartChar: M
Encoding: 77 77 64
Width: 1778
VWidth: 0
Flags: W
LayerCount: 2
Fore
SplineSet
218 0 m 1
 410 0 l 1
 410 1117 l 1
 816 458 l 1
 965 458 l 1
 1370 1121 l 1
 1370 0 l 1
 1560 0 l 1
 1560 1446 l 1
 1382 1446 l 1
 890 638 l 1
 403 1446 l 1
 218 1446 l 1
 218 0 l 1
EndSplineSet
EndChar

StartChar: N
Encoding: 78 78 65
Width: 1594
VWidth: 0
Flags: W
LayerCount: 2
Fore
SplineSet
218 0 m 1
 395 0 l 1
 395 1104 l 1
 1197 0 l 1
 1376 0 l 1
 1376 1446 l 1
 1199 1446 l 1
 1199 290 l 1
 371 1446 l 1
 218 1446 l 1
 218 0 l 1
797 0 m 0
797 0 m 0
EndSplineSet
EndChar

StartChar: O
Encoding: 79 79 70
Width: 1546
VWidth: 0
Flags: W
PickledData: "(dp1
S'com.typemytype.robofont.guides'
p2
(tsS'com.typemytype.robofont.layerData'
p3
(dp4
S'b'
(dp5
S'name'
p6
S'O'
sS'lib'
p7
(dp8
sS'unicodes'
p9
(tsS'width'
p10
I1546
sS'contours'
p11
(tsS'components'
p12
(tsS'anchors'
p13
(tsss."
LayerCount: 2
Fore
SplineSet
782 140 m 0
 526 140 388 199 388 455 c 2
 388 978 l 2
 388 1235 528 1306 782 1306 c 0
 1038 1306 1159 1235 1159 978 c 2
 1159 455 l 2
 1159 199 1040 140 782 140 c 0
782 -22 m 0
 1247 -22 1360 203 1360 500 c 2
 1360 928 l 2
 1360 1234 1249 1468 782 1468 c 0
 297 1468 186 1247 186 941 c 2
 186 486 l 2
 186 185 299 -22 782 -22 c 0
773 0 m 0
EndSplineSet
EndChar

StartChar: OE
Encoding: 338 338 71
Width: 1557
VWidth: 0
Flags: W
PickledData: "(dp1
S'com.typemytype.robofont.layerData'
p2
(dp3
S'b'
(dp4
S'name'
p5
S'OE'
p6
sS'lib'
p7
(dp8
sS'unicodes'
p9
(tsS'width'
p10
I1557
sS'contours'
p11
(tsS'components'
p12
(tsS'anchors'
p13
(tsss."
LayerCount: 2
Fore
SplineSet
775 0 m 2
 1399 0 l 1
 1399 150 l 1
 976 150 l 1
 976 664 l 1
 1329 664 l 1
 1329 814 l 1
 976 814 l 1
 976 1296 l 1
 1390 1296 l 1
 1390 1446 l 1
 775 1446 l 2
 290 1446 183 1224 183 918 c 2
 183 510 l 2
 183 209 292 0 775 0 c 2
765 150 m 2
 516 150 385 226 385 479 c 2
 385 955 l 2
 385 1208 517 1295 764 1295 c 2
 775 1295 l 1
 775 150 l 1
 765 150 l 2
779 0 m 0
EndSplineSet
EndChar

StartChar: Oslash
Encoding: 216 216 79
Width: 1546
VWidth: 0
Flags: W
PickledData: "(dp1
S'com.typemytype.robofont.layerData'
p2
(dp3
S'b'
(dp4
S'name'
p5
S'Oslash'
p6
sS'lib'
p7
(dp8
sS'unicodes'
p9
(tsS'width'
p10
I1546
sS'contours'
p11
(tsS'components'
p12
(tsS'anchors'
p13
(tsss."
LayerCount: 2
Fore
SplineSet
479 -195 m 1
 1158 1638 l 1
 1054 1676 l 1
 376 -157 l 1
 479 -195 l 1
773 0 m 0
EndSplineSet
Refer: 70 79 N 1 0 0 1 0 0 2
EndChar

StartChar: P
Encoding: 80 80 81
Width: 1326
VWidth: 0
Flags: W
LayerCount: 2
Fore
SplineSet
218 0 m 1
 420 0 l 1
 420 529 l 1
 793 529 l 2
 1039 529 1198 645 1198 991 c 0
 1198 1320 1039 1446 796 1446 c 2
 218 1446 l 1
 218 0 l 1
420 682 m 1
 420 1293 l 1
 802 1293 l 2
 983 1293 996 1118 996 977 c 0
 996 828 972 682 797 682 c 2
 420 682 l 1
EndSplineSet
EndChar

StartChar: Q
Encoding: 81 81 82
Width: 1542
VWidth: 0
Flags: W
PickledData: "(dp1
S'com.typemytype.robofont.layerData'
p2
(dp3
S'b'
(dp4
S'name'
p5
S'Q'
sS'lib'
p6
(dp7
sS'unicodes'
p8
(tsS'width'
p9
I1542
sS'contours'
p10
(tsS'components'
p11
(tsS'anchors'
p12
(tsss."
LayerCount: 2
Fore
SplineSet
944 -384 m 1
 1085 -308 l 1
 883 2 l 1
 703 -3 l 1
 944 -384 l 1
EndSplineSet
Refer: 70 79 N 1 0 0 1 0 0 2
EndChar

StartChar: R
Encoding: 82 82 83
Width: 1464
VWidth: 0
Flags: W
LayerCount: 2
Fore
SplineSet
218 0 m 1
 420 0 l 1
 420 599 l 1
 420 599 865 600 876 600 c 1
 1163 0 l 1
 1370 0 l 1
 1063 636 l 1
 1184 687 1267 784 1267 1018 c 0
 1267 1341 1106 1446 863 1446 c 2
 218 1446 l 1
 218 0 l 1
420 752 m 1
 420 1293 l 1
 869 1293 l 2
 1050 1293 1065 1139 1065 1000 c 0
 1065 861 1021 752 846 752 c 2
 420 752 l 1
732 0 m 0
732 0 m 0
EndSplineSet
EndChar

StartChar: S
Encoding: 83 83 87
Width: 1304
VWidth: 0
Flags: W
LayerCount: 2
Fore
SplineSet
691 -22 m 0
 1017 -22 1157 132 1164 380 c 0
 1171 618 1083 715 879 784 c 2
 515 907 l 2
 372 955 360 1012 368 1137 c 0
 376 1260 492 1306 691 1306 c 0
 879 1306 1005 1257 1092 1210 c 1
 1141 1367 l 1
 1048 1425 903 1468 656 1468 c 0
 392 1468 181 1372 172 1118 c 0
 164 900 244 805 453 736 c 2
 802 620 l 1
 995 558 985 483 972 352 c 0
 956 198 887 140 687 140 c 0
 510 140 325 202 215 267 c 1
 144 113 l 1
 296 25 476 -22 691 -22 c 0
652 0 m 0
652 0 m 0
EndSplineSet
EndChar

StartChar: T
Encoding: 84 84 93
Width: 1204
VWidth: 0
Flags: W
LayerCount: 2
Fore
SplineSet
501 0 m 1
 702 0 l 1
 702 1281 l 1
 1120 1281 l 1
 1120 1446 l 1
 84 1446 l 1
 84 1281 l 1
 501 1281 l 1
 501 0 l 1
602 0 m 0
602 0 m 0
602 0 m 0
EndSplineSet
EndChar

StartChar: Tbar
Encoding: 358 358 94
Width: 1204
VWidth: 0
Flags: W
LayerCount: 2
Fore
SplineSet
232 688.4 m 1
 948 688.4 l 1
 948 817.4 l 1
 232 817.4 l 1
 232 688.4 l 1
EndSplineSet
Refer: 93 84 N 1 0 0 1 0 0 2
EndChar

StartChar: Thorn
Encoding: 222 222 97
Width: 1320
VWidth: 0
Flags: W
PickledData: "(dp1
S'com.typemytype.robofont.layerData'
p2
(dp3
S'b'
(dp4
S'name'
p5
S'Thorn'
p6
sS'lib'
p7
(dp8
sS'unicodes'
p9
(tsS'width'
p10
I1320
sS'contours'
p11
(tsS'components'
p12
(tsS'anchors'
p13
(tsss."
LayerCount: 2
Fore
SplineSet
212 0 m 1
 414 0 l 1
 414 331 l 1
 787 331 l 2
 1033 331 1192 427 1192 773 c 0
 1192 1102 1031 1208 788 1208 c 2
 414 1208 l 1
 414 1446 l 1
 212 1446 l 1
 212 0 l 1
414 484 m 1
 414 1055 l 1
 794 1055 l 2
 975 1055 990 900 990 759 c 0
 990 610 966 484 791 484 c 2
 414 484 l 1
EndSplineSet
EndChar

StartChar: U
Encoding: 85 85 98
Width: 1538
VWidth: 0
Flags: W
LayerCount: 2
Fore
SplineSet
779 -22 m 0
 1232 -22 1338 205 1338 473 c 2
 1338 1446 l 1
 1136 1446 l 1
 1136 452 l 2
 1136 186 982 140 779 140 c 0
 578 140 402 186 402 452 c 2
 402 1446 l 1
 200 1446 l 1
 200 473 l 2
 200 202 306 -22 779 -22 c 0
769 0 m 0
1384 10 m 0
EndSplineSet
EndChar

StartChar: V
Encoding: 86 86 109
Width: 1386
VWidth: 0
Flags: W
LayerCount: 2
Fore
SplineSet
602 0 m 1
 779 0 l 1
 1300 1446 l 1
 1091 1446 l 1
 692 294 l 1
 293 1446 l 1
 86 1446 l 1
 602 0 l 1
EndSplineSet
EndChar

StartChar: W
Encoding: 87 87 110
Width: 2048
VWidth: 0
Flags: W
LayerCount: 2
Fore
SplineSet
522 0 m 1
 674 0 l 1
 1037 1232 l 1
 1390 0 l 1
 1542 0 l 1
 1936 1446 l 1
 1753 1446 l 1
 1462 346 l 1
 1133 1446 l 1
 918 1446 l 1
 603 346 l 1
 296 1446 l 1
 112 1446 l 1
 522 0 l 1
1024 0 m 0
EndSplineSet
EndChar

StartChar: X
Encoding: 88 88 115
Width: 1336
VWidth: 0
Flags: W
LayerCount: 2
Fore
SplineSet
94 0 m 1
 306 0 l 1
 667 568 l 1
 1024 0 l 1
 1242 0 l 1
 773 734 l 1
 1227 1446 l 1
 1010 1446 l 1
 669 898 l 1
 319 1446 l 1
 116 1446 l 1
 565 731 l 1
 94 0 l 1
EndSplineSet
EndChar

StartChar: Y
Encoding: 89 89 116
Width: 1318
VWidth: 0
Flags: W
LayerCount: 2
Fore
SplineSet
560 0 m 1
 761 0 l 1
 761 568 l 1
 1270 1446 l 1
 1063 1446 l 1
 661 744 l 1
 261 1446 l 1
 48 1446 l 1
 560 568 l 1
 560 0 l 1
659 0 m 0
EndSplineSet
EndChar

StartChar: Z
Encoding: 90 90 121
Width: 1242
VWidth: 0
Flags: W
LayerCount: 2
Fore
SplineSet
180 0 m 1
 1096 0 l 1
 1096 165 l 1
 402 165 l 1
 1083 1295 l 1
 1083 1446 l 1
 211 1446 l 1
 211 1281 l 1
 862 1281 l 1
 180 150 l 1
 180 0 l 1
621 0 m 0
EndSplineSet
EndChar

StartChar: a
Encoding: 97 97 125
Width: 1172
VWidth: 0
Flags: W
LayerCount: 2
Fore
SplineSet
471 -22 m 0
 666 -22 749 78 796 150 c 1
 828 50 879 -8 1020 -8 c 2
 1058 -8 l 1
 1080 136 l 1
 989 136 969 156 969 268 c 2
 969 720 l 2
 969 938 872 1080 592 1080 c 0
 314 1080 174 988 174 779 c 2
 174 731 l 1
 355 731 l 1
 355 778 l 2
 355 863 373 936 586 936 c 0
 758 936 782 864 781 776 c 0
 780 670 712 647 539 597 c 0
 201 499 132 423 132 283 c 0
 132 120 246 -22 471 -22 c 0
500 120 m 0
 397 120 320 160 314 266 c 0
 308 368 382 415 550 464 c 0
 684 503 752 554 781 583 c 1
 781 277 l 1
 751 179 613 120 500 120 c 0
586 0 m 0
1055 10 m 0
EndSplineSet
EndChar

StartChar: acute
Encoding: 180 180 129
Width: 616
VWidth: 0
Flags: W
LayerCount: 2
Fore
SplineSet
133 1165 m 1
 239 1165 l 1
 478 1506 l 1
 253 1506 l 1
 133 1165 l 1
305.5 0 m 0
EndSplineSet
EndChar

StartChar: ae
Encoding: 230 230 131
Width: 1741
VWidth: 0
Flags: W
PickledData: "(dp1
S'com.typemytype.robofont.layerData'
p2
(dp3
S'b'
(dp4
S'name'
p5
S'ae'
p6
sS'lib'
p7
(dp8
sS'unicodes'
p9
(tsS'width'
p10
I1741
sS'contours'
p11
(tsS'components'
p12
(tsS'anchors'
p13
(tsss."
LayerCount: 2
Fore
SplineSet
469 -20 m 0
 656 -20 787 48 878 158 c 1
 920 55 996 -20 1189 -20 c 0
 1479 -20 1582 60 1603 318 c 1
 1433 318 l 1
 1420 135 1355 121 1189 121 c 0
 1042 121 973 186 973 328 c 2
 973 511 l 1
 1609 511 l 1
 1609 758 l 2
 1609 959 1473 1080 1197 1080 c 0
 1052 1080 949 1037 887 939 c 1
 850 1035 728 1080 590 1080 c 0
 312 1080 172 955 172 746 c 2
 172 718 l 1
 353 718 l 1
 353 745 l 2
 353 830 371 940 584 940 c 0
 776 940 785 830 785 753 c 0
 785 637 744 642 517 606 c 0
 170 551 131 423 131 283 c 0
 131 120 244 -20 469 -20 c 0
498 113 m 0
 395 113 319 160 313 266 c 0
 307 368 347 450 569 487 c 0
 730 514 785 547 785 547 c 1
 785 273 l 1
 755 175 611 113 498 113 c 0
973 633 m 1
 973 760 l 2
 973 891 1046 938 1196 938 c 0
 1341 938 1437 906 1437 778 c 2
 1437 633 l 1
 973 633 l 1
871 0 m 0
EndSplineSet
EndChar

StartChar: ampersand
Encoding: 38 38 134
Width: 1500
VWidth: 0
Flags: W
LayerCount: 2
Fore
SplineSet
720 -24 m 0
 972.667 -24 1110.81 27.7859 1186.19 114.251 c 1
 1328 -19 l 1
 1432 94 l 1
 1257.02 260.579 l 1
 1273.67 331.713 1276 412.842 1276 500 c 2
 1276 778 l 1
 1101 778 l 1
 1101 455 l 2
 1101 439.212 1100.74 424.177 1100.21 409.86 c 1
 578 907 l 1
 487 1002 454 1048 454 1126 c 0
 454 1242 494 1331 704 1331 c 0
 892 1331 958 1302 958 1164 c 2
 958 1104 l 1
 1124 1104 l 1
 1124 1205 l 2
 1124 1441 976 1483 689 1483 c 0
 355 1483 264 1323 264 1142 c 0
 264 988.427 333.986 912.763 438.551 815.757 c 1
 244.376 758.358 176 639.625 176 439 c 0
 176 198 277 -24 720 -24 c 0
720 126 m 0
 464 126 378 239 378 445 c 0
 378 567.217 388.655 680.419 538.327 723.02 c 1
 1063.27 229.756 l 1
 1012.52 135.542 906.381 126 720 126 c 0
EndSplineSet
EndChar

StartChar: asciicircum
Encoding: 94 94 138
Width: 1257
VWidth: 0
Flags: W
LayerCount: 2
Fore
SplineSet
154 626 m 1
 348 626 l 1
 628 1161 l 1
 910 626 l 1
 1103 626 l 1
 735 1283 l 1
 513 1283 l 1
 154 626 l 1
EndSplineSet
EndChar

StartChar: asciitilde
Encoding: 126 126 139
Width: 881
VWidth: 0
Flags: W
LayerCount: 2
Fore
SplineSet
280 1173 m 0
 417 1173 539 1320 610 1320 c 0
 691 1320 720 1249 720 1187 c 1
 817 1187 l 1
 817 1352 721 1466 601 1466 c 0
 464 1466 342 1319 271 1319 c 0
 190 1319 161 1390 161 1452 c 1
 64 1452 l 1
 64 1287 160 1173 280 1173 c 0
EndSplineSet
EndChar

StartChar: asterisk
Encoding: 42 42 140
Width: 1024
VWidth: 0
Flags: W
LayerCount: 2
Fore
SplineSet
423 599 m 1
 601 599 l 1
 572 912 l 1
 819 722 l 1
 914 875 l 1
 634 1017 l 1
 925 1134 l 1
 844 1295 l 1
 571 1121 l 1
 601 1446 l 1
 423 1446 l 1
 451 1133 l 1
 204 1323 l 1
 109 1170 l 1
 389 1028 l 1
 99 911 l 1
 179 750 l 1
 452 924 l 1
 423 599 l 1
EndSplineSet
EndChar

StartChar: at
Encoding: 64 64 141
Width: 2048
VWidth: 0
Flags: W
PickledData: "(dp1
S'com.typemytype.robofont.layerData'
p2
(dp3
S'b'
(dp4
S'name'
p5
S'at'
p6
sS'lib'
p7
(dp8
sS'unicodes'
p9
(tsS'width'
p10
I2048
sS'contours'
p11
(tsS'components'
p12
(tsS'anchors'
p13
(tsss."
LayerCount: 2
Fore
SplineSet
1104 -258 m 0
 1327 -258 1556 -207 1671 -158 c 1
 1621 -17 l 1
 1520 -61 1319 -111 1104 -111 c 0
 769 -111 552 13 552 298 c 2
 552 936 l 2
 552 1222 729 1331 1062 1331 c 0
 1461 1331 1497 1180 1497 955 c 1
 1496 955 1330 915 1197 883 c 0
 811 790 744 689 744 533 c 0
 744 351 870 195 1121 195 c 0
 1338 195 1468 296 1521 376 c 1
 1546 294 1575 212 1732 212 c 2
 1772 212 l 1
 1792 360 l 1
 1668 360 1676 401 1676 516 c 2
 1676 963 l 2
 1676 1153 1681 1483 1062 1483 c 0
 521 1483 362 1236 362 895 c 2
 362 332 l 2
 362 -3 566 -258 1104 -258 c 0
1153 343 m 0
 1038 343 954 396 947 514 c 0
 940 627 973 687 1213 749 c 0
 1365 788 1479 816 1497 825 c 1
 1497 522 l 1
 1464 412 1279 343 1153 343 c 0
EndSplineSet
EndChar

StartChar: b
Encoding: 98 98 143
Width: 1204
VWidth: 0
Flags: W
LayerCount: 2
Fore
SplineSet
626 -22 m 0
 902 -22 1056 139 1056 352 c 2
 1056 736 l 2
 1056 940 921 1080 650 1080 c 0
 551 1080 442 1049 374 1010 c 1
 374 1506 l 1
 186 1506 l 1
 186 0 l 1
 325 0 l 1
 349 71 l 1
 405 36 500 -22 626 -22 c 0
598 126 m 0
 509 126 429 157 374 188 c 1
 374 870 l 1
 444 902 553 936 641 936 c 0
 779 936 868 877 868 750 c 2
 868 332 l 2
 868 202 746 126 598 126 c 0
EndSplineSet
EndChar

StartChar: backslash
Encoding: 92 92 144
Width: 768
VWidth: 0
Flags: W
PickledData: "(dp1
S'com.typemytype.robofont.layerData'
p2
(dp3
S'b'
(dp4
S'name'
p5
S'backslash'
p6
sS'lib'
p7
(dp8
sS'unicodes'
p9
(tsS'width'
p10
I768
sS'contours'
p11
(tsS'components'
p12
(tsS'anchors'
p13
(tsss."
LayerCount: 2
Fore
SplineSet
521 0 m 1
 704 0 l 1
 251 1506 l 1
 64 1506 l 1
 521 0 l 1
EndSplineSet
EndChar

StartChar: bar
Encoding: 124 124 145
Width: 690
VWidth: 0
Flags: W
PickledData: "(dp1
S'com.typemytype.robofont.layerData'
p2
(dp3
S'b'
(dp4
S'name'
p5
S'bar'
p6
sS'lib'
p7
(dp8
sS'unicodes'
p9
(tsS'width'
p10
I690
sS'contours'
p11
(tsS'components'
p12
(tsS'anchors'
p13
(tsss."
LayerCount: 2
Fore
SplineSet
256 -167 m 1
 434 -167 l 1
 434 1555 l 1
 256 1555 l 1
 256 -167 l 1
EndSplineSet
EndChar

StartChar: braceleft
Encoding: 123 123 146
Width: 952
VWidth: 0
Flags: W
LayerCount: 2
Fore
SplineSet
866 -207 m 1
 866 -56 l 1
 572 -56 578 7 578 264 c 2
 578 297 l 2
 578 469 548 613 474 650 c 1
 548 686 578 830 578 1002 c 2
 578 1035 l 2
 578 1292 572 1355 866 1355 c 1
 866 1506 l 1
 381 1506 386 1334 386 1028 c 2
 386 1005 l 2
 386 708 386 725 158 725 c 1
 158 574 l 1
 386 574 386 591 386 294 c 2
 386 271 l 2
 386 -35 381 -207 866 -207 c 1
EndSplineSet
EndChar

StartChar: braceright
Encoding: 125 125 147
Width: 952
VWidth: 0
Flags: W
PickledData: "(dp1
S'com.typemytype.robofont.layerData'
p2
(dp3
S'b'
(dp4
S'name'
p5
S'braceright'
p6
sS'lib'
p7
(dp8
sS'unicodes'
p9
(tsS'width'
p10
I952
sS'contours'
p11
(tsS'components'
p12
(tsS'anchors'
p13
(tsss."
LayerCount: 2
Fore
SplineSet
128 -207 m 1
 613 -207 608 -35 608 271 c 2
 608 294 l 2
 608 591 608 574 836 574 c 1
 836 725 l 1
 608 725 608 708 608 1005 c 2
 608 1028 l 2
 608 1334 613 1506 128 1506 c 1
 128 1355 l 1
 422 1355 416 1292 416 1035 c 2
 416 1002 l 2
 416 830 446 686 520 649 c 1
 446 613 416 469 416 297 c 2
 416 264 l 2
 416 7 422 -56 128 -56 c 1
 128 -207 l 1
EndSplineSet
EndChar

StartChar: bracketleft
Encoding: 91 91 148
Width: 768
VWidth: 0
Flags: W
PickledData: "(dp1
S'com.typemytype.robofont.layerData'
p2
(dp3
S'b'
(dp4
S'name'
p5
S'bracketleft'
p6
sS'lib'
p7
(dp8
sS'unicodes'
p9
(tsS'width'
p10
I768
sS'contours'
p11
(tsS'components'
p12
(tsS'anchors'
p13
(tsss."
LayerCount: 2
Fore
SplineSet
256 -76 m 1
 634 -76 l 1
 634 58 l 1
 444 58 l 1
 444 1396 l 1
 634 1396 l 1
 634 1529 l 1
 256 1529 l 1
 256 -76 l 1
EndSplineSet
EndChar

StartChar: bracketright
Encoding: 93 93 149
Width: 768
VWidth: 0
Flags: W
LayerCount: 2
Fore
SplineSet
195 -76 m 1
 573 -76 l 1
 573 1529 l 1
 195 1529 l 1
 195 1395 l 1
 385 1395 l 1
 385 57 l 1
 195 57 l 1
 195 -76 l 1
EndSplineSet
EndChar

StartChar: breve
Encoding: 728 728 150
Width: 512
VWidth: 0
Flags: W
LayerCount: 2
Fore
SplineSet
256 1294 m 0
 395 1294 482 1391 482 1506 c 1
 377 1506 l 1
 377 1437 329 1390 256 1390 c 0
 187 1390 135 1440 135 1506 c 1
 30 1506 l 1
 30 1391 117 1294 256 1294 c 0
256 0 m 0
EndSplineSet
EndChar

StartChar: brokenbar
Encoding: 166 166 151
Width: 674
VWidth: 0
Flags: W
LayerCount: 2
Fore
SplineSet
254 -167 m 1
 432 -167 l 1
 432 513 l 1
 254 513 l 1
 254 -167 l 1
254 848 m 1
 432 848 l 1
 432 1555 l 1
 254 1555 l 1
 254 848 l 1
EndSplineSet
EndChar

StartChar: bullet
Encoding: 8226 8226 152
Width: 975
VWidth: 0
Flags: W
LayerCount: 2
Fore
SplineSet
486 298 m 0
 713 298 795 405 795 599 c 0
 795 795 714 901 487 901 c 0
 262 901 180 795 180 599 c 0
 180 404 260 298 486 298 c 0
EndSplineSet
EndChar

StartChar: c
Encoding: 99 99 153
Width: 1110
VWidth: 0
Flags: W
PickledData: "(dp1
S'com.typemytype.robofont.layerData'
p2
(dp3
S'b'
(dp4
S'name'
p5
S'c'
sS'lib'
p6
(dp7
sS'unicodes'
p8
(tsS'width'
p9
I1110
sS'contours'
p10
((dp11
S'points'
p12
((dp13
S'segmentType'
p14
S'line'
p15
sS'x'
F336
sS'smooth'
p16
I00
sS'y'
F633
s(dp17
g14
S'line'
p18
sS'x'
F336
sg16
I01
sS'y'
F760
s(dp19
S'y'
F891
sS'x'
F336
sg16
I00
s(dp20
S'y'
F936
sS'x'
F432
sg16
I00
s(dp21
g14
S'curve'
p22
sS'x'
F582
sg16
I01
sS'y'
F936
s(dp23
S'y'
F936
sS'x'
F727
sg16
I00
s(dp24
S'y'
F906
sS'x'
F824
sg16
I00
s(dp25
g14
S'curve'
p26
sS'x'
F824
sg16
I01
sS'y'
F778
s(dp27
g14
S'line'
p28
sS'x'
F824
sg16
I00
sS'y'
F633
stp29
s(dp30
g12
((dp31
g14
S'curve'
p32
sS'x'
F589
sg16
I01
sS'y'
F-22
s(dp33
S'y'
F-22
sS'x'
F883
sg16
I00
s(dp34
S'y'
F32
sS'x'
F978
sg16
I00
s(dp35
g14
S'curve'
p36
sS'x'
F1004
sg16
I00
sS'y'
F282
s(dp37
g14
S'line'
p38
sS'x'
F838
sg16
I00
sS'y'
F282
s(dp39
S'y'
F122
sS'x'
F822
sg16
I00
s(dp40
S'y'
F122
sS'x'
F766
sg16
I00
s(dp41
g14
S'curve'
p42
sS'x'
F589
sg16
I01
sS'y'
F122
s(dp43
S'y'
F122
sS'x'
F389
sg16
I00
s(dp44
S'y'
F185
sS'x'
F336
sg16
I00
s(dp45
g14
S'curve'
p46
sS'x'
F336
sg16
I01
sS'y'
F357
s(dp47
g14
S'line'
p48
sS'x'
F336
sg16
I00
sS'y'
F506
s(dp49
g14
S'line'
p50
sS'x'
F1006
sg16
I00
sS'y'
F506
s(dp51
g14
S'line'
p52
sS'x'
F1006
sg16
I01
sS'y'
F758
s(dp53
S'y'
F959
sS'x'
F1006
sg16
I00
s(dp54
S'y'
F1080
sS'x'
F873
sg16
I00
s(dp55
g14
S'curve'
p56
sS'x'
F582
sg16
I01
sS'y'
F1080
s(dp57
S'y'
F1080
sS'x'
F278
sg16
I00
s(dp58
S'y'
F943
sS'x'
F148
sg16
I00
s(dp59
g14
S'curve'
p60
sS'x'
F148
sg16
I01
sS'y'
F743
s(dp61
g14
S'line'
p62
sS'x'
F148
sg16
I01
sS'y'
F374
s(dp63
S'y'
F110
sS'x'
F148
sg16
I00
s(dp64
S'y'
F-22
sS'x'
F273
sg16
I00
stp65
stp66
sS'components'
p67
(tsS'anchors'
p68
(tsss."
LayerCount: 2
Fore
SplineSet
579 -22 m 0
 867.209 -22 969 66 990 310 c 1
 816 310 l 1
 802 150 765 122 579 122 c 0
 427 122 336 176 336 328 c 2
 336 743 l 2
 336 884 417 936 579 936 c 0
 755 936 812 901 813 707 c 1
 992 724 l 1
 992 1009 828 1080 574 1080 c 0
 311 1080 148 948 148 748 c 2
 148 344 l 2
 148 148 263 -22 579 -22 c 0
555 0 m 0
555 0 m 0
EndSplineSet
EndChar

StartChar: caron
Encoding: 711 711 155
Width: 512
VWidth: 0
Flags: W
LayerCount: 2
Fore
SplineSet
175 1240 m 1
 325 1240 l 1
 542 1506 l 1
 381 1506 l 1
 249 1332 l 1
 125 1506 l 1
 -30 1506 l 1
 175 1240 l 1
256 0 m 0
EndSplineSet
EndChar

StartChar: cedilla
Encoding: 184 184 160
Width: 512
VWidth: 0
Flags: W
LayerCount: 2
Fore
SplineSet
213 -486 m 0
 378 -486 460 -397 460 -303 c 0
 460 -214 386 -120 239 -94 c 1
 233 0 l 1
 171 0 l 1
 171 -158 l 1
 271 -161 331 -229 331 -290 c 0
 331 -342 289 -389 191 -389 c 0
 170 -389 146 -387 120 -382 c 1
 120 -478 l 1
 154 -484 185 -486 213 -486 c 0
290 0 m 0
EndSplineSet
EndChar

StartChar: cent
Encoding: 162 162 161
Width: 1110
VWidth: 0
Flags: W
PickledData: "(dp1
S'com.typemytype.robofont.layerData'
p2
(dp3
S'b'
(dp4
S'name'
p5
S'cent'
p6
sS'lib'
p7
(dp8
sS'unicodes'
p9
(tsS'width'
p10
I1110
sS'contours'
p11
((dp12
S'points'
p13
((dp14
S'segmentType'
p15
S'line'
p16
sS'x'
F540
sS'smooth'
p17
I00
sS'y'
F-205
s(dp18
g15
S'line'
p19
sS'x'
F643
sg17
I00
sS'y'
F-205
s(dp20
g15
S'line'
p21
sS'x'
F643
sg17
I00
sS'y'
F1275
s(dp22
g15
S'line'
p23
sS'x'
F540
sg17
I00
sS'y'
F1275
stp24
stp25
sS'components'
p26
(tsS'anchors'
p27
(tsss."
LayerCount: 2
Fore
SplineSet
540 1013 m 1
 643 1013 l 1
 643 1277 l 1
 540 1277 l 1
 540 1013 l 1
540 -205 m 1
 643 -205 l 1
 643 59 l 1
 540 59 l 1
 540 -205 l 1
EndSplineSet
Refer: 153 99 N 1 0 0 1 0 0 2
EndChar

StartChar: circumflex
Encoding: 710 710 162
Width: 512
VWidth: 0
Flags: W
LayerCount: 2
Fore
SplineSet
-30 1240 m 1
 130 1240 l 1
 262 1414 l 1
 386 1240 l 1
 542 1240 l 1
 336 1506 l 1
 186 1506 l 1
 -30 1240 l 1
256 0 m 0
EndSplineSet
EndChar

StartChar: comma
Encoding: 44 44 164
Width: 641
VWidth: 0
Flags: W
PickledData: "(dp1
S'com.typemytype.robofont.layerData'
p2
(dp3
S'b'
(dp4
S'name'
p5
S'comma'
p6
sS'lib'
p7
(dp8
sS'unicodes'
p9
(tsS'width'
p10
I641
sS'contours'
p11
(tsS'components'
p12
(tsS'anchors'
p13
(tsss."
LayerCount: 2
Fore
SplineSet
277 -338 m 1
 335 -284 449 -141 449 50 c 2
 449 233 l 1
 192 233 l 1
 192 0 l 1
 333 0 l 1
 333 -132 243 -239 196 -294 c 1
 277 -338 l 1
EndSplineSet
EndChar

StartChar: commaaccentcomb
Encoding: 806 806 165
Width: 769
VWidth: 0
Flags: W
LayerCount: 2
Fore
SplineSet
341 -664.1 m 1
 399 -610.1 513 -467.1 513 -276.1 c 2
 513 -93.0996 l 1
 256 -93.0996 l 1
 256 -326.1 l 1
 397 -326.1 l 1
 397 -458.1 307 -565.1 260 -620.1 c 1
 341 -664.1 l 1
384.5 0 m 0
EndSplineSet
EndChar

StartChar: copyright
Encoding: 169 169 166
Width: 1784
VWidth: 0
Flags: W
PickledData: "(dp1
S'com.typemytype.robofont.layerData'
p2
(dp3
S'b'
(dp4
S'name'
p5
S'copyright'
p6
sS'lib'
p7
(dp8
sS'unicodes'
p9
(tsS'width'
p10
I1784
sS'contours'
p11
(tsS'components'
p12
(tsS'anchors'
p13
(tsss."
LayerCount: 2
Fore
SplineSet
903 287 m 0
 1179 287 1228 422 1228 598 c 2
 1228 632 l 1
 1112 632 l 1
 1112 571 l 2
 1112 419 1056 376 903 376 c 0
 751 376 671 419 671 571 c 2
 671 890 l 2
 671 1042 751 1091 902 1091 c 0
 1054 1091 1112 1042 1112 890 c 2
 1112 826 l 1
 1228 836 l 1
 1228 861 l 2
 1228 1043 1179 1182 902 1182 c 0
 614 1182 551 1050 551 868 c 2
 551 590 l 2
 551 411 616 287 903 287 c 0
894 82 m 0
 530 82 265 357 265 722 c 0
 265 1086 530 1361 894 1361 c 0
 1260 1361 1522 1086 1522 722 c 0
 1522 357 1260 82 894 82 c 0
892 -14 m 0
 1308 -14 1628 303 1628 722 c 0
 1628 1139 1308 1456 892 1456 c 0
 479 1456 156 1139 156 722 c 0
 156 303 479 -14 892 -14 c 0
EndSplineSet
EndChar

StartChar: currency
Encoding: 164 164 167
Width: 1149
VWidth: 0
Flags: W
PickledData: "(dp1
S'com.typemytype.robofont.layerData'
p2
(dp3
S'b'
(dp4
S'name'
p5
S'currency'
p6
sS'lib'
p7
(dp8
sS'unicodes'
p9
(tsS'width'
p10
I1149
sS'contours'
p11
(tsS'components'
p12
(tsS'anchors'
p13
(tsss."
LayerCount: 2
Fore
SplineSet
564 360 m 0
 666 360 759 406 817 486 c 1
 981 376 l 1
 1033 457 l 1
 862 571 l 1
 876 608 883 648 883 689 c 0
 883 751 866 809 839 860 c 1
 1023 993 l 1
 973 1075 l 1
 780 935 l 1
 723 990 647 1018 564 1018 c 0
 482 1018 407 991 350 937 c 1
 170 1061 l 1
 116 979 l 1
 291 862 l 1
 261 811 245 752 245 689 c 0
 245 640 255 592 274 549 c 1
 126 443 l 1
 177 360 l 1
 324 468 l 1
 384 398 469 360 564 360 c 0
565 444 m 0
 436 444 340 555 340 690 c 0
 340 826 436 936 565 936 c 0
 694 936 790 826 790 690 c 0
 790 555 694 444 565 444 c 0
EndSplineSet
EndChar

StartChar: d
Encoding: 100 100 168
Width: 1200
VWidth: 0
Flags: W
LayerCount: 2
Fore
SplineSet
568 -22 m 0
 677 -22 793 22 855 70 c 1
 886 0 l 1
 1014 0 l 1
 1014 1506 l 1
 826 1506 l 1
 826 1040 l 1
 760 1064 658 1080 591 1080 c 0
 283 1080 148 948 148 735 c 2
 148 335 l 2
 148 131 263 -22 568 -22 c 0
580 126 m 0
 442 126 336 189 336 321 c 2
 336 756 l 2
 336 886 445 936 593 936 c 0
 681 936 770 919 826 892 c 1
 826 189 l 1
 783 163 687 126 580 126 c 0
600 0 m 0
EndSplineSet
EndChar

StartChar: dagger
Encoding: 8224 8224 169
Width: 890
VWidth: 0
Flags: W
LayerCount: 2
Fore
SplineSet
348 0 m 1
 536 0 l 1
 536 931 l 1
 802 931 l 1
 802 1060 l 1
 536 1060 l 1
 536 1446 l 1
 348 1446 l 1
 348 1060 l 1
 88 1060 l 1
 88 931 l 1
 348 931 l 1
 348 0 l 1
EndSplineSet
EndChar

StartChar: daggerdbl
Encoding: 8225 8225 170
Width: 938
VWidth: 0
Flags: W
LayerCount: 2
Fore
SplineSet
372 0 m 1
 560 0 l 1
 560 409 l 1
 826 409 l 1
 826 538 l 1
 560 538 l 1
 560 931 l 1
 826 931 l 1
 826 1060 l 1
 560 1060 l 1
 560 1446 l 1
 372 1446 l 1
 372 1060 l 1
 112 1060 l 1
 112 931 l 1
 372 931 l 1
 372 538 l 1
 112 538 l 1
 112 409 l 1
 372 409 l 1
 372 0 l 1
EndSplineSet
EndChar

StartChar: dblgravecmb
Encoding: 783 783 171
Width: 1024
VWidth: 0
Flags: W
LayerCount: 2
Fore
SplineSet
450 1031 m 1
 573 1031 l 1
 373 1506 l 1
 154 1506 l 1
 450 1031 l 1
772 1031 m 1
 870 1031 l 1
 764 1506 l 1
 553 1506 l 1
 772 1031 l 1
512 0 m 0
EndSplineSet
EndChar

StartChar: dcroat
Encoding: 273 273 173
Width: 1200
VWidth: 0
Flags: W
LayerCount: 2
Fore
SplineSet
462 1249 m 1
 1177 1249 l 1
 1177 1373 l 1
 462 1373 l 1
 462 1249 l 1
EndSplineSet
Refer: 168 100 N 1 0 0 1 0 0 2
EndChar

StartChar: degree
Encoding: 176 176 174
Width: 1036
VWidth: 0
Flags: W
LayerCount: 2
Fore
SplineSet
519 885 m 0
 388 885 291 992 291 1123 c 0
 291 1254 388 1361 519 1361 c 0
 650 1361 747 1254 747 1123 c 0
 747 992 650 885 519 885 c 0
518 798 m 0
 696 798 842 943 842 1122 c 0
 842 1300 696 1446 518 1446 c 0
 340 1446 194 1300 194 1122 c 0
 194 943 340 798 518 798 c 0
EndSplineSet
EndChar

StartChar: dieresis
Encoding: 168 168 175
Width: 1025
VWidth: 0
Flags: W
LayerCount: 2
Fore
SplineSet
158 1265 m 1
 364 1265 l 1
 364 1446 l 1
 158 1446 l 1
 158 1265 l 1
661 1265 m 1
 867 1265 l 1
 867 1446 l 1
 661 1446 l 1
 661 1265 l 1
512.5 0 m 0
EndSplineSet
EndChar

StartChar: divide
Encoding: 247 247 176
Width: 1025
VWidth: 0
Flags: W
LayerCount: 2
Fore
SplineSet
413 90 m 1
 618 90 l 1
 618 299 l 1
 413 299 l 1
 413 90 l 1
100 472 m 1
 925 472 l 1
 925 609 l 1
 100 609 l 1
 100 472 l 1
413 787 m 1
 618 787 l 1
 618 996 l 1
 413 996 l 1
 413 787 l 1
EndSplineSet
EndChar

StartChar: dollar
Encoding: 36 36 177
Width: 1303
VWidth: 0
Flags: W
LayerCount: 2
Fore
SplineSet
620 -242 m 1
 730 -242 l 1
 730 1638 l 1
 620 1638 l 1
 620 -242 l 1
EndSplineSet
Refer: 87 83 N 1 0 0 1 0 0 2
EndChar

StartChar: dotaccent
Encoding: 729 729 178
Width: 512
VWidth: 0
Flags: W
LayerCount: 2
Fore
SplineSet
136 1275 m 1
 376 1275 l 1
 376 1506 l 1
 136 1506 l 1
 136 1275 l 1
256 0 m 0
EndSplineSet
EndChar

StartChar: dotlessi
Encoding: 305 305 179
Width: 596
VWidth: 0
Flags: W
LayerCount: 2
Fore
SplineSet
206 0 m 1
 394 0 l 1
 394 1060 l 1
 206 1060 l 1
 206 0 l 1
298 0 m 0
536 10 m 0
EndSplineSet
EndChar

StartChar: e
Encoding: 101 101 180
Width: 1158
VWidth: 0
Flags: W
PickledData: "(dp1
S'com.typemytype.robofont.layerData'
p2
(dp3
S'b'
(dp4
S'name'
p5
S'e'
sS'lib'
p6
(dp7
sS'unicodes'
p8
(tsS'width'
p9
I1158
sS'contours'
p10
((dp11
S'points'
p12
((dp13
S'segmentType'
p14
S'line'
p15
sS'x'
F336
sS'smooth'
p16
I00
sS'y'
F633
s(dp17
g14
S'line'
p18
sS'x'
F336
sg16
I01
sS'y'
F760
s(dp19
S'y'
F891
sS'x'
F336
sg16
I00
s(dp20
S'y'
F936
sS'x'
F432
sg16
I00
s(dp21
g14
S'curve'
p22
sS'x'
F582
sg16
I01
sS'y'
F936
s(dp23
S'y'
F936
sS'x'
F727
sg16
I00
s(dp24
S'y'
F906
sS'x'
F824
sg16
I00
s(dp25
g14
S'curve'
p26
sS'x'
F824
sg16
I01
sS'y'
F778
s(dp27
g14
S'line'
p28
sS'x'
F824
sg16
I00
sS'y'
F633
stp29
s(dp30
g12
((dp31
g14
S'curve'
p32
sS'x'
F589
sg16
I01
sS'y'
F-22
s(dp33
S'y'
F-22
sS'x'
F883
sg16
I00
s(dp34
S'y'
F71
sS'x'
F978
sg16
I00
s(dp35
g14
S'curve'
p36
sS'x'
F1004
sg16
I00
sS'y'
F306
s(dp37
g14
S'line'
p38
sS'x'
F838
sg16
I00
sS'y'
F306
s(dp39
S'y'
F146
sS'x'
F822
sg16
I00
s(dp40
S'y'
F122
sS'x'
F766
sg16
I00
s(dp41
g14
S'curve'
p42
sS'x'
F589
sg16
I01
sS'y'
F122
s(dp43
S'y'
F122
sS'x'
F389
sg16
I00
s(dp44
S'y'
F186
sS'x'
F336
sg16
I00
s(dp45
g14
S'curve'
p46
sS'x'
F336
sg16
I01
sS'y'
F358
s(dp47
g14
S'line'
p48
sS'x'
F336
sg16
I00
sS'y'
F506
s(dp49
g14
S'line'
p50
sS'x'
F1006
sg16
I00
sS'y'
F506
s(dp51
g14
S'line'
p52
sS'x'
F1006
sg16
I01
sS'y'
F758
s(dp53
S'y'
F959
sS'x'
F1006
sg16
I00
s(dp54
S'y'
F1080
sS'x'
F873
sg16
I00
s(dp55
g14
S'curve'
p56
sS'x'
F582
sg16
I01
sS'y'
F1080
s(dp57
S'y'
F1080
sS'x'
F278
sg16
I00
s(dp58
S'y'
F943
sS'x'
F148
sg16
I00
s(dp59
g14
S'curve'
p60
sS'x'
F148
sg16
I01
sS'y'
F743
s(dp61
g14
S'line'
p62
sS'x'
F148
sg16
I01
sS'y'
F374
s(dp63
S'y'
F118
sS'x'
F148
sg16
I00
s(dp64
S'y'
F-22
sS'x'
F273
sg16
I00
stp65
stp66
sS'components'
p67
(tsS'anchors'
p68
(tsss."
LayerCount: 2
Fore
SplineSet
589 -22 m 0
 883 -22 978 32 1004 282 c 1
 838 282 l 1
 822 122 766 122 589 122 c 0
 389 122 336 185 336 357 c 2
 336 506 l 1
 1006 506 l 1
 1006 758 l 2
 1006 959 873 1080 582 1080 c 0
 278 1080 148 943 148 743 c 2
 148 374 l 2
 148 110 273 -22 589 -22 c 0
336 633 m 1
 336 760 l 2
 336 891 432 936 582 936 c 0
 727 936 824 906 824 778 c 2
 824 633 l 1
 336 633 l 1
579 0 m 0
579 0 m 0
1042 10 m 0
EndSplineSet
EndChar

StartChar: eight
Encoding: 56 56 188
Width: 1250
VWidth: 0
Flags: W
PickledData: "(dp1
S'com.typemytype.robofont.layerData'
p2
(dp3
S'b'
(dp4
S'name'
p5
S'eight'
p6
sS'lib'
p7
(dp8
sS'unicodes'
p9
(tsS'width'
p10
I1250
sS'contours'
p11
(tsS'components'
p12
(tsS'anchors'
p13
(tsss."
LayerCount: 2
Fore
SplineSet
621 -22 m 0
 921 -22 1118 103 1118 367 c 0
 1118 580 969 703 811 773 c 1
 962 842 1090 922 1090 1108 c 0
 1090 1375 878 1468 626 1468 c 0
 371 1468 160 1375 160 1108 c 0
 160 922 287 842 438 773 c 1
 280 703 132 580 132 367 c 0
 132 103 327 -22 621 -22 c 0
626 140 m 0
 435 140 323 199 323 372 c 0
 323 529 462 610 625 689 c 1
 787 610 927 529 927 372 c 0
 927 199 814 140 626 140 c 0
625 846 m 1
 479 916 355 977 355 1107 c 0
 355 1230 425 1306 626 1306 c 0
 825 1306 895 1230 895 1107 c 0
 895 977 771 917 625 846 c 1
EndSplineSet
EndChar

StartChar: emdash
Encoding: 8212 8212 191
Width: 1101
VWidth: 0
Flags: W
LayerCount: 2
Fore
SplineSet
2 402 m 1
 1098 402 l 1
 1098 548 l 1
 2 548 l 1
 2 402 l 1
EndSplineSet
EndChar

StartChar: endash
Encoding: 8211 8211 192
Width: 539
VWidth: 0
Flags: W
LayerCount: 2
Fore
SplineSet
2 606 m 1
 535 606 l 1
 535 732 l 1
 2 732 l 1
 2 606 l 1
EndSplineSet
EndChar

StartChar: eng
Encoding: 331 331 193
Width: 1194
VWidth: 0
Flags: W
LayerCount: 2
Fore
SplineSet
501 -316 m 1
 832 -316 1050 -202 1050 179 c 2
 1050 770 l 2
 1050 938 949 1080 688 1080 c 0
 534 1080 436 1029 374 957 c 1
 374 1060 l 1
 186 1060 l 1
 186 0 l 1
 374 0 l 1
 374 755 l 2
 374 857 456 936 640 936 c 0
 771 936 862 886 862 781 c 2
 862 172 l 2
 862 -140 717 -153 473 -175 c 1
 501 -316 l 1
EndSplineSet
EndChar

StartChar: equal
Encoding: 61 61 195
Width: 1250
VWidth: 0
Flags: W
LayerCount: 2
Fore
SplineSet
224 467 m 1
 1026 467 l 1
 1026 615 l 1
 224 615 l 1
 224 467 l 1
224 805 m 1
 1026 805 l 1
 1026 953 l 1
 224 953 l 1
 224 805 l 1
EndSplineSet
EndChar

StartChar: eth
Encoding: 240 240 196
Width: 1158
VWidth: 0
Flags: W
LayerCount: 2
Fore
SplineSet
587 -20 m 0
 970 -20 1010 170 1010 365 c 2
 1010 536 l 2
 1010 928 882 1162 733 1303 c 1
 863 1389 l 1
 794 1473 l 1
 646 1375 l 1
 512 1470 378 1502 317 1515 c 1
 243 1407 l 1
 307 1387 413 1353 514 1288 c 1
 323 1162 l 1
 391 1078 l 1
 606 1220 l 1
 687 1148 754 1052 782 921 c 1
 755 944 653 975 587 975 c 0
 324 975 150 846 150 646 c 2
 150 314 l 2
 150 118 271 -20 587 -20 c 0
587 121 m 0
 440 121 337 166 337 308 c 2
 337 652 l 2
 337 783 441 833 587 833 c 0
 647 833 762 813 805 783 c 1
 820 701 828 624 828 593 c 2
 828 359 l 2
 828 229 820 121 587 121 c 0
EndSplineSet
EndChar

StartChar: exclam
Encoding: 33 33 197
Width: 768
VWidth: 0
Flags: W
LayerCount: 2
Fore
SplineSet
280 0 m 1
 484 0 l 1
 484 206 l 1
 280 206 l 1
 280 0 l 1
353 371 m 1
 409 371 l 1
 409 371 488 1060 488 1446 c 1
 286 1446 l 1
 286 1060 353 371 353 371 c 1
EndSplineSet
EndChar

StartChar: f
Encoding: 102 102 199
Width: 790
VWidth: 0
Flags: W
LayerCount: 2
Fore
SplineSet
287 0 m 1
 475 0 l 1
 475 918 l 1
 732 918 l 1
 732 1060 l 1
 475 1060 l 1
 475 1240 l 2
 475 1316 513 1373 628 1373 c 2
 744 1373 l 1
 732 1506 l 1
 613 1506 l 2
 395 1506 287 1420 287 1222 c 2
 287 1060 l 1
 110 1060 l 1
 110 918 l 1
 287 918 l 1
 287 0 l 1
EndSplineSet
EndChar

StartChar: five
Encoding: 53 53 200
Width: 1250
VWidth: 0
Flags: W
PickledData: "(dp1
S'com.typemytype.robofont.layerData'
p2
(dp3
S'b'
(dp4
S'name'
p5
S'five'
p6
sS'lib'
p7
(dp8
sS'unicodes'
p9
(tsS'width'
p10
I1250
sS'contours'
p11
(tsS'components'
p12
(tsS'anchors'
p13
(tsss."
LayerCount: 2
Fore
SplineSet
632 -22 m 0
 924 -22 1117 169 1117 449 c 0
 1117 734 968 911 669 911 c 0
 568 911 469 877 406 819 c 1
 448 1281 l 1
 1024 1281 l 1
 1024 1446 l 1
 287 1446 l 1
 236 712 l 1
 382 652 l 1
 485 727 546 762 645 762 c 0
 843 762 924 637 928 449 c 0
 932 250 816 140 624 140 c 0
 420 140 330 191 226 260 c 1
 173 107 l 1
 277 46 408 -22 632 -22 c 0
EndSplineSet
EndChar

StartChar: florin
Encoding: 402 402 201
Width: 890
VWidth: 0
Flags: W
LayerCount: 2
Fore
SplineSet
250.584 -190.401 m 0
 451.314 -190.401 521 -98.358 521 91 c 2
 521 727 l 1
 650 727 l 1
 650 858 l 1
 521 858 l 1
 521 1177 l 2
 521 1262.72 541.852 1335.06 679.667 1335.06 c 0
 689.207 1335.06 699.307 1334.71 710 1334 c 1
 710 1458 l 1
 671.922 1462.08 637.354 1464.17 606.029 1464.17 c 0
 397.98 1464.17 333 1371.78 333 1155 c 2
 333 858 l 1
 216 858 l 1
 216 727 l 1
 333 727 l 1
 333 63 l 2
 333 -18.0222 299.991 -61.2689 189.057 -61.2689 c 0
 174.428 -61.2689 158.443 -60.5168 141 -59 c 1
 141 -183 l 1
 181.232 -187.926 217.67 -190.401 250.584 -190.401 c 0
EndSplineSet
EndChar

StartChar: four
Encoding: 52 52 202
Width: 1250
VWidth: 0
Flags: W
LayerCount: 2
Fore
SplineSet
783 0 m 1
 950 0 l 1
 950 351 l 1
 1162 351 l 1
 1162 506 l 1
 950 506 l 1
 950 837 l 1
 783 837 l 1
 783 506 l 1
 367 506 l 1
 881 1446 l 1
 672 1446 l 1
 143 508 l 1
 143 351 l 1
 783 351 l 1
 783 0 l 1
EndSplineSet
EndChar

StartChar: fraction
Encoding: 8260 8260 203
Width: 768
VWidth: 0
Flags: W
PickledData: "(dp1
S'com.typemytype.robofont.layerData'
p2
(dp3
S'b'
(dp4
S'name'
p5
S'fraction'
p6
sS'lib'
p7
(dp8
sS'unicodes'
p9
(tsS'width'
p10
I768
sS'contours'
p11
(tsS'components'
p12
(tsS'anchors'
p13
(tsss."
LayerCount: 2
Fore
SplineSet
16 0 m 1
 203 0 l 1
 752 1506 l 1
 569 1506 l 1
 16 0 l 1
EndSplineSet
EndChar

StartChar: g
Encoding: 103 103 204
Width: 1186
VWidth: 0
Flags: W
LayerCount: 2
Fore
SplineSet
603 -375 m 0
 883 -375 1010 -223 1010 25 c 2
 1010 1060 l 1
 822 1060 l 1
 822 975 l 1
 792 1025 658 1080 550 1080 c 0
 274 1080 148 941 148 728 c 2
 148 379 l 2
 148 159 279 40 550 40 c 0
 623 40 762 60 822 116 c 1
 822 2 l 2
 822 -139 764 -224 602 -231 c 0
 494 -236 360 -218 295 -194 c 1
 253 -335 l 1
 331 -364 460 -375 603 -375 c 0
579 184 m 0
 441 184 336 223 336 350 c 2
 336 748 l 2
 336 878 430 936 578 936 c 0
 745 936 822 882 822 790 c 2
 822 264 l 1
 792 240 719 184 579 184 c 0
593 0 m 0
EndSplineSet
EndChar

StartChar: germandbls
Encoding: 223 223 209
Width: 1281
VWidth: 0
Flags: W
LayerCount: 2
Fore
SplineSet
190 0 m 1
 378 0 l 1
 378 1131 l 2
 378 1305 497 1332 643 1332 c 0
 781 1332 869 1296 869 1119 c 0
 869 989 818 912 600 912 c 1
 600 770 l 1
 838 770 991 743 991 485 c 0
 991 182 786 168 518 148 c 1
 536 0 l 1
 942 0 1166 119 1166 488 c 0
 1166 786 1019 829 902 878 c 1
 1010 908 1057 979 1057 1135 c 0
 1057 1347 933 1483 652 1483 c 0
 396 1483 190 1401 190 1103 c 2
 190 0 l 1
EndSplineSet
EndChar

StartChar: grave
Encoding: 96 96 210
Width: 616
VWidth: 0
Flags: W
LayerCount: 2
Fore
SplineSet
372 1165 m 1
 478 1165 l 1
 340 1506 l 1
 115 1506 l 1
 372 1165 l 1
296.5 0 m 0
EndSplineSet
EndChar

StartChar: greater
Encoding: 62 62 211
Width: 1250
VWidth: 0
Flags: W
LayerCount: 2
Fore
SplineSet
208 0 m 1
 1094 472 l 1
 1094 673 l 1
 208 1144 l 1
 208 935 l 1
 939 571 l 1
 208 203 l 1
 208 0 l 1
EndSplineSet
EndChar

StartChar: guillemotleft
Encoding: 171 171 213
Width: 1054
VWidth: 0
Flags: W
PickledData: "(dp1
S'com.typemytype.robofont.layerData'
p2
(dp3
S'b'
(dp4
S'name'
p5
S'guillemotleft'
p6
sS'lib'
p7
(dp8
sS'unicodes'
p9
(tsS'width'
p10
I1054
sS'contours'
p11
(tsS'components'
p12
(tsS'anchors'
p13
(tsss."
LayerCount: 2
Fore
SplineSet
376 80 m 1
 516 150 l 1
 309 530 l 1
 516 910 l 1
 369 980 l 1
 96 530 l 1
 376 80 l 1
790 80 m 1
 928 150 l 1
 723 530 l 1
 928 910 l 1
 783 980 l 1
 510 530 l 1
 790 80 l 1
EndSplineSet
EndChar

StartChar: guillemotright
Encoding: 187 187 214
Width: 1054
VWidth: 0
Flags: W
PickledData: "(dp1
S'com.typemytype.robofont.layerData'
p2
(dp3
S'b'
(dp4
S'name'
p5
S'guillemotright'
p6
sS'lib'
p7
(dp8
sS'unicodes'
p9
(tsS'width'
p10
I1054
sS'contours'
p11
(tsS'components'
p12
(tsS'anchors'
p13
(tsss."
LayerCount: 2
Fore
SplineSet
271 80 m 1
 544 530 l 1
 264 980 l 1
 126 910 l 1
 331 530 l 1
 126 150 l 1
 271 80 l 1
685 80 m 1
 958 530 l 1
 678 980 l 1
 538 910 l 1
 745 530 l 1
 538 150 l 1
 685 80 l 1
EndSplineSet
EndChar

StartChar: guilsinglleft
Encoding: 8249 8249 215
Width: 768
VWidth: 0
Flags: W
LayerCount: 2
Fore
SplineSet
454 80 m 1
 594 150 l 1
 387 530 l 1
 594 910 l 1
 447 980 l 1
 174 530 l 1
 454 80 l 1
EndSplineSet
EndChar

StartChar: guilsinglright
Encoding: 8250 8250 216
Width: 768
VWidth: 0
Flags: W
LayerCount: 2
Fore
SplineSet
327 80 m 1
 600 530 l 1
 320 980 l 1
 180 910 l 1
 387 530 l 1
 180 150 l 1
 327 80 l 1
EndSplineSet
EndChar

StartChar: h
Encoding: 104 104 217
Width: 1226
VWidth: 0
Flags: W
LayerCount: 2
Fore
SplineSet
186 0 m 1
 374 0 l 1
 374 758 l 2
 374 860 458 936 642 936 c 0
 773 936 862 888 862 783 c 2
 862 0 l 1
 1050 0 l 1
 1050 773 l 2
 1050 941 951 1080 690 1080 c 0
 536 1080 436 1032 374 960 c 1
 374 1505 l 1
 186 1505 l 1
 186 0 l 1
613 0 m 0
613 0 m 0
EndSplineSet
EndChar

StartChar: hbar
Encoding: 295 295 218
Width: 1224
VWidth: 0
Flags: W
LayerCount: 2
Fore
SplineSet
29 1249 m 1
 844 1249 l 1
 844 1373 l 1
 29 1373 l 1
 29 1249 l 1
EndSplineSet
Refer: 217 104 N 1 0 0 1 0 0 2
EndChar

StartChar: hungarumlaut
Encoding: 733 733 220
Width: 1024
VWidth: 0
Flags: W
LayerCount: 2
Fore
SplineSet
154 1031 m 1
 252 1031 l 1
 471 1506 l 1
 260 1506 l 1
 154 1031 l 1
451 1031 m 1
 574 1031 l 1
 870 1506 l 1
 651 1506 l 1
 451 1031 l 1
512 0 m 0
EndSplineSet
EndChar

StartChar: hyphen
Encoding: 45 45 221
Width: 1024
VWidth: 0
Flags: W
LayerCount: 2
Fore
SplineSet
162 494 m 1
 862 494 l 1
 862 642 l 1
 162 642 l 1
 162 494 l 1
EndSplineSet
EndChar

StartChar: i
Encoding: 105 105 222
Width: 596
VWidth: 0
Flags: W
LayerCount: 2
Fore
SplineSet
206 0 m 1
 394 0 l 1
 394 1060 l 1
 206 1060 l 1
 206 0 l 1
206 1251 m 1
 394 1251 l 1
 394 1446 l 1
 206 1446 l 1
 206 1251 l 1
EndSplineSet
EndChar

StartChar: integral
Encoding: 8747 8747 231
Width: 890
VWidth: 0
Flags: W
LayerCount: 2
Fore
SplineSet
250.584 -380.401 m 0
 451.314 -380.401 521 -288.358 521 -99 c 2
 521 1181 l 2
 521 1266.72 541.852 1339.06 679.667 1339.06 c 0
 689.207 1339.06 699.308 1338.71 710 1338 c 1
 710 1462 l 1
 671.922 1466.08 637.354 1468.17 606.029 1468.17 c 0
 397.979 1468.17 333 1375.78 333 1159 c 2
 333 -127 l 2
 333 -208.022 299.99 -251.269 189.057 -251.269 c 0
 174.428 -251.269 158.442 -250.517 141 -249 c 1
 141 -373 l 1
 181.231 -377.927 217.67 -380.401 250.584 -380.401 c 0
EndSplineSet
EndChar

StartChar: j
Encoding: 106 106 234
Width: 602
VWidth: 0
Flags: W
LayerCount: 2
Fore
SplineSet
32 -353 m 1
 98 -353 l 2
 304 -353 420 -305 420 7 c 2
 420 1060 l 1
 232 1060 l 1
 232 -4 l 2
 232 -174 175 -197 42 -197 c 2
 13 -197 l 1
 32 -353 l 1
232 1251 m 1
 420 1251 l 1
 420 1446 l 1
 232 1446 l 1
 232 1251 l 1
EndSplineSet
EndChar

StartChar: k
Encoding: 107 107 236
Width: 1152
VWidth: 0
Flags: W
LayerCount: 2
Fore
SplineSet
186 0 m 1
 374 0 l 1
 374 334 l 1
 533 492 l 1
 913 0 l 1
 1130 0 l 1
 656 594 l 1
 1087 1060 l 1
 881 1060 l 1
 374 524 l 1
 374 1506 l 1
 186 1506 l 1
 186 0 l 1
576 0 m 0
EndSplineSet
EndChar

StartChar: kgreenlandic
Encoding: 312 312 238
Width: 1148
VWidth: 0
Flags: W
LayerCount: 2
Fore
SplineSet
186 0 m 1
 374 0 l 1
 374 354 l 1
 521 498 l 1
 905 0 l 1
 1122 0 l 1
 665 583 l 1
 1079 1060 l 1
 871 1060 l 1
 702 877 544 692 374 510 c 1
 374 1060 l 1
 186 1060 l 1
 186 0 l 1
EndSplineSet
EndChar

StartChar: l
Encoding: 108 108 239
Width: 696
VWidth: 0
Flags: W
PickledData: "(dp1
S'com.typemytype.robofont.layerData'
p2
(dp3
S'b'
(dp4
S'name'
p5
S'l'
sS'lib'
p6
(dp7
sS'unicodes'
p8
(tsS'width'
p9
I696
sS'contours'
p10
(tsS'components'
p11
(tsS'anchors'
p12
(tsss."
LayerCount: 2
Fore
SplineSet
530 -8 m 2
 584 -8 l 1
 606 150 l 1
 573 150 l 2
 416 150 378 183 378 356 c 2
 378 1505 l 1
 190 1505 l 1
 190 358 l 2
 190 49 298 -8 530 -8 c 2
352 0 m 0
352 0 m 0
684 0 m 0
EndSplineSet
EndChar

StartChar: less
Encoding: 60 60 244
Width: 1250
VWidth: 0
Flags: W
LayerCount: 2
Fore
SplineSet
1042 0 m 1
 1042 209 l 1
 311 573 l 1
 1042 941 l 1
 1042 1144 l 1
 156 672 l 1
 156 471 l 1
 1042 0 l 1
EndSplineSet
EndChar

StartChar: logicalnot
Encoding: 172 172 246
Width: 864
VWidth: 0
Flags: W
LayerCount: 2
Fore
SplineSet
589 333 m 1
 721 333 l 1
 721 692 l 1
 98 692 l 1
 98 556 l 1
 589 556 l 1
 589 333 l 1
EndSplineSet
EndChar

StartChar: lozenge
Encoding: 9674 9674 247
Width: 1104
VWidth: 0
Flags: W
LayerCount: 2
Fore
SplineSet
480 0 m 1
 650 0 l 1
 988 754 l 1
 650 1505 l 1
 480 1505 l 1
 116 754 l 1
 480 0 l 1
567 160 m 1
 295 754 l 1
 567 1335 l 1
 814 754 l 1
 567 160 l 1
EndSplineSet
EndChar

StartChar: lslash
Encoding: 322 322 248
Width: 708
VWidth: 0
Flags: W
PickledData: "(dp1
S'com.typemytype.robofont.layerData'
p2
(dp3
S'b'
(dp4
S'name'
p5
S'lslash'
p6
sS'lib'
p7
(dp8
sS'unicodes'
p9
(tsS'width'
p10
I708
sS'contours'
p11
(tsS'components'
p12
(tsS'anchors'
p13
(tsss."
LayerCount: 2
Fore
SplineSet
52 616 m 1
 604 887 l 1
 604 1011 l 1
 52 740 l 1
 52 616 l 1
EndSplineSet
Refer: 239 108 N 1 0 0 1 0 0 2
EndChar

StartChar: m
Encoding: 109 109 249
Width: 1860
VWidth: 0
Flags: W
LayerCount: 2
Fore
SplineSet
186 0 m 1
 374 0 l 1
 374 755 l 2
 374 857 446 936 630 936 c 0
 761 936 844 886 844 781 c 2
 844 0 l 1
 1032 0 l 1
 1032 755 l 2
 1032 857 1104 936 1288 936 c 0
 1419 936 1496 886 1496 781 c 2
 1496 0 l 1
 1684 0 l 1
 1684 770 l 2
 1684 938 1597 1080 1336 1080 c 0
 1182 1080 1081 1032 1014 965 c 1
 989 941 l 1
 939 1024 842 1080 678 1080 c 0
 524 1080 436 1029 374 957 c 1
 374 1060 l 1
 186 1060 l 1
 186 0 l 1
EndSplineSet
EndChar

StartChar: macron
Encoding: 175 175 250
Width: 513
VWidth: 0
Flags: W
PickledData: "(dp1
S'com.typemytype.robofont.layerData'
p2
(dp3
S'b'
(dp4
S'name'
p5
S'macron'
p6
sS'lib'
p7
(dp8
sS'unicodes'
p9
(tsS'width'
p10
I513
sS'contours'
p11
(tsS'components'
p12
(tsS'anchors'
p13
(tsss."
LayerCount: 2
Fore
SplineSet
32 1359 m 1
 481 1359 l 1
 481 1506 l 1
 32 1506 l 1
 32 1359 l 1
256.5 0 m 0
EndSplineSet
EndChar

StartChar: minus
Encoding: 8722 8722 251
Width: 911
VWidth: 0
Flags: W
LayerCount: 2
Fore
SplineSet
142 439 m 1
 769 439 l 1
 769 609 l 1
 142 609 l 1
 142 439 l 1
EndSplineSet
EndChar

StartChar: multiply
Encoding: 215 215 252
Width: 973
VWidth: 0
Flags: W
LayerCount: 2
Fore
SplineSet
239 216 m 1
 487 458 l 1
 735 216 l 1
 844 344 l 1
 608 576 l 1
 844 806 l 1
 735 937 l 1
 487 694 l 1
 239 937 l 1
 129 806 l 1
 366 576 l 1
 129 344 l 1
 239 216 l 1
EndSplineSet
EndChar

StartChar: n
Encoding: 110 110 253
Width: 1226
VWidth: 0
Flags: W
PickledData: "(dp1
S'com.typemytype.robofont.layerData'
p2
(dp3
S'b'
(dp4
S'name'
p5
S'n'
sS'lib'
p6
(dp7
sS'unicodes'
p8
(tsS'width'
p9
I1226
sS'contours'
p10
(tsS'components'
p11
(tsS'anchors'
p12
(tsss."
LayerCount: 2
Fore
SplineSet
186 0 m 1
 374 0 l 1
 374 755 l 2
 374 857 456 936 640 936 c 0
 771 936 862 886 862 781 c 2
 862 0 l 1
 1050 0 l 1
 1050 770 l 2
 1050 938 949 1080 688 1080 c 0
 534 1080 436 1029 374 957 c 1
 374 1060 l 1
 186 1060 l 1
 186 0 l 1
613 0 m 0
613 0 m 0
EndSplineSet
EndChar

StartChar: napostrophe
Encoding: 329 329 255
Width: 1226
VWidth: 0
Flags: W
PickledData: "(dp1
S'com.typemytype.robofont.layerData'
p2
(dp3
S'b'
(dp4
S'name'
p5
S'napostrophe'
p6
sS'lib'
p7
(dp8
sS'unicodes'
p9
(tsS'width'
p10
I1226
sS'contours'
p11
(tsS'components'
p12
(tsS'anchors'
p13
(tsss."
LayerCount: 2
Fore
SplineSet
613 0 m 0
613 0 m 0
EndSplineSet
Refer: 253 110 N 1 0 0 1 0 0 2
Refer: 165 806 N 1 0 0 1 -46 1919 2
EndChar

StartChar: nine
Encoding: 57 57 258
Width: 1250
VWidth: 0
Flags: W
PickledData: "(dp1
S'com.typemytype.robofont.layerData'
p2
(dp3
S'b'
(dp4
S'name'
p5
S'nine'
p6
sS'lib'
p7
(dp8
sS'unicodes'
p9
(tsS'width'
p10
I1250
sS'contours'
p11
(tsS'components'
p12
(tsS'anchors'
p13
(tsss."
LayerCount: 2
Fore
SplineSet
451 0 m 1
 651 0 l 1
 965 549 l 1
 1059 718 1106 878 1106 1020 c 0
 1106 1340 913 1468 637 1468 c 0
 361 1468 151 1342 151 1024 c 0
 151 694 334 568 630 568 c 0
 690 568 765 586 808 605 c 1
 451 0 l 1
634 731 m 0
 455 731 338 778 338 1024 c 0
 338 1249 454 1306 634 1306 c 0
 815 1306 919 1249 919 1021 c 0
 919 800 815 731 634 731 c 0
EndSplineSet
EndChar

StartChar: numbersign
Encoding: 35 35 261
Width: 1284
VWidth: 0
Flags: W
PickledData: "(dp1
S'com.typemytype.robofont.layerData'
p2
(dp3
S'b'
(dp4
S'name'
p5
S'numbersign'
p6
sS'lib'
p7
(dp8
sS'unicodes'
p9
(tsS'width'
p10
I1284
sS'contours'
p11
(tsS'components'
p12
(tsS'anchors'
p13
(tsss."
LayerCount: 2
Fore
SplineSet
180 0 m 1
 358 0 l 1
 442 475 l 1
 740 475 l 1
 653 0 l 1
 831 0 l 1
 915 475 l 1
 1174 475 l 1
 1174 594 l 1
 936 594 l 1
 992 910 l 1
 1198 910 l 1
 1198 1029 l 1
 1013 1029 l 1
 1087 1446 l 1
 917 1446 l 1
 841 1029 l 1
 540 1029 l 1
 614 1446 l 1
 444 1446 l 1
 368 1029 l 1
 110 1029 l 1
 110 910 l 1
 346 910 l 1
 289 594 l 1
 86 594 l 1
 86 475 l 1
 267 475 l 1
 180 0 l 1
463 594 m 1
 519 910 l 1
 819 910 l 1
 762 594 l 1
 463 594 l 1
EndSplineSet
EndChar

StartChar: o
Encoding: 111 111 262
Width: 1174
VWidth: 0
Flags: W
LayerCount: 2
Fore
SplineSet
587 122 m 0
 437 122 336 168 336 299 c 2
 336 758 l 2
 336 889 437 936 587 936 c 0
 734 936 838 889 838 758 c 2
 838 299 l 2
 838 168 734 122 587 122 c 0
587 -22 m 0
 903 -22 1026 119 1026 315 c 2
 1026 742 l 2
 1026 938 903 1080 587 1080 c 0
 268 1080 148 938 148 742 c 2
 148 315 l 2
 148 119 268 -22 587 -22 c 0
587 0 m 0
EndSplineSet
EndChar

StartChar: oe
Encoding: 339 339 267
Width: 1734
VWidth: 0
Flags: W
LayerCount: 2
Fore
SplineSet
569 -20 m 0
 730 -20 822 34 883 122 c 1
 947 35 1054 -20 1198 -20 c 0
 1488 -20 1582 73 1603 331 c 1
 1433 331 l 1
 1420 148 1364 121 1198 121 c 0
 1051 121 979 186 979 328 c 2
 979 506 l 1
 1604 506 l 1
 1604 758 l 2
 1604 959 1474 1080 1198 1080 c 0
 1053 1080 949 1043 883 950 c 1
 813 1043 707 1080 569 1080 c 0
 306 1080 150 947 150 747 c 2
 150 317 l 2
 150 121 253 -20 569 -20 c 0
569 121 m 0
 422 121 338 170 338 301 c 2
 338 763 l 2
 338 894 430 938 569 938 c 0
 714 938 791 888 791 763 c 2
 791 301 l 2
 791 171 708 121 569 121 c 0
979 633 m 1
 979 760 l 2
 979 891 1048 938 1198 938 c 0
 1343 938 1422 906 1422 778 c 2
 1422 633 l 1
 979 633 l 1
867 0 m 0
EndSplineSet
EndChar

StartChar: ogonek
Encoding: 731 731 268
Width: 513
VWidth: 0
Flags: W
PickledData: "(dp1
S'com.typemytype.robofont.layerData'
p2
(dp3
S'b'
(dp4
S'name'
p5
S'ogonek'
p6
sS'lib'
p7
(dp8
sS'unicodes'
p9
(tsS'width'
p10
I513
sS'contours'
p11
(tsS'components'
p12
(tsS'anchors'
p13
(tsss."
LayerCount: 2
Fore
SplineSet
403 -486 m 1
 403 -389 l 1
 276 -389 234 -330 234 -255 c 0
 234 -170 287 -64 354 0 c 1
 292 0 l 1
 162 -110 110 -211 110 -291 c 0
 110 -410 224 -486 403 -486 c 1
403 10 m 0
EndSplineSet
EndChar

StartChar: one
Encoding: 49 49 272
Width: 1250
VWidth: 0
Flags: W
PickledData: "(dp1
S'com.typemytype.robofont.layerData'
p2
(dp3
S'b'
(dp4
S'name'
p5
S'one'
p6
sS'lib'
p7
(dp8
sS'unicodes'
p9
(tsS'width'
p10
I1250
sS'contours'
p11
(tsS'components'
p12
(tsS'anchors'
p13
(tsss."
LayerCount: 2
Fore
SplineSet
206 0 m 1
 1162 0 l 1
 1162 155 l 1
 808 155 l 1
 808 1446 l 1
 644 1446 l 1
 215 1396 l 1
 233 1237 l 1
 607 1277 l 1
 607 155 l 1
 206 155 l 1
 206 0 l 1
EndSplineSet
EndChar

StartChar: onehalf
Encoding: 189 189 273
Width: 2047
VWidth: 0
Flags: W
LayerCount: 2
Fore
SplineSet
1370.89 2 m 1
 1883 2 l 1
 1883 101 l 1
 1512 101 l 1
 1725 339 l 2
 1807 431 1879 495 1879 625 c 0
 1879 758 1795 867 1614 867 c 0
 1445 867 1332.06 789.106 1332.06 604.791 c 1
 1448.56 604.791 l 1
 1448.56 740.998 1494 765 1616 765 c 0
 1720 765 1763 718 1762 621 c 0
 1761 542 1726 502 1643 413 c 1
 1359.88 93.5778 l 1
 1370.89 2 l 1
164 654 m 1
 800 654 l 1
 800 755 l 1
 569 755 l 1
 569 1505 l 1
 462 1505 l 1
 170 1472 l 1
 182 1368 l 1
 438 1394 l 1
 438 755 l 1
 164 755 l 1
 164 654 l 1
687 0 m 1
 819 0 l 1
 1497 1446 l 1
 1371 1446 l 1
 687 0 l 1
EndSplineSet
EndChar

StartChar: onequarter
Encoding: 188 188 274
Width: 2047
VWidth: 0
Flags: W
PickledData: "(dp1
S'com.typemytype.robofont.layerData'
p2
(dp3
S'b'
(dp4
S'name'
p5
S'onequarter'
p6
sS'lib'
p7
(dp8
sS'unicodes'
p9
(tsS'width'
p10
I2047
sS'contours'
p11
(tsS'components'
p12
(tsS'anchors'
p13
(tsss."
LayerCount: 2
Fore
SplineSet
164 654 m 1
 800 654 l 1
 800 755 l 1
 569 755 l 1
 569 1505 l 1
 462 1505 l 1
 170 1472 l 1
 182 1368 l 1
 438 1394 l 1
 438 755 l 1
 164 755 l 1
 164 654 l 1
687 0 m 1
 819 0 l 1
 1497 1446 l 1
 1371 1446 l 1
 687 0 l 1
1655 0 m 1
 1768 0 l 1
 1768 207 l 1
 1912 207 l 1
 1912 298 l 1
 1768 298 l 1
 1768 533 l 1
 1655 533 l 1
 1655 298 l 1
 1373 298 l 1
 1721 892 l 1
 1580 892 l 1
 1221 299 l 1
 1221 207 l 1
 1655 207 l 1
 1655 0 l 1
EndSplineSet
EndChar

StartChar: oslash
Encoding: 248 248 277
Width: 1174
VWidth: 0
Flags: W
LayerCount: 2
Fore
SplineSet
363 -226 m 1
 901 1220 l 1
 811 1251 l 1
 271 -195 l 1
 363 -226 l 1
587 0 m 0
EndSplineSet
Refer: 262 111 N 1 0 0 1 0 0 2
EndChar

StartChar: p
Encoding: 112 112 279
Width: 1198
VWidth: 0
Flags: W
LayerCount: 2
Fore
SplineSet
186 -408 m 1
 374 -408 l 1
 374 34 l 1
 425 8 505 -22 624 -22 c 0
 900 -22 1050 131 1050 344 c 2
 1050 729 l 2
 1050 933 919 1080 648 1080 c 0
 527 1080 412 1030 356 980 c 1
 334 1060 l 1
 186 1060 l 1
 186 -408 l 1
612 122 m 0
 503 122 422 152 374 179 c 1
 374 824 l 1
 391 850 486 936 619 936 c 0
 757 936 862 871 862 744 c 2
 862 324 l 2
 862 194 760 122 612 122 c 0
EndSplineSet
EndChar

StartChar: paragraph
Encoding: 182 182 280
Width: 1250
VWidth: 0
Flags: W
LayerCount: 2
Fore
SplineSet
485 0 m 1
 621 0 l 1
 621 1338 l 1
 825 1338 l 1
 825 0 l 1
 961 0 l 1
 961 1446 l 1
 521 1446 l 2
 327 1446 168 1372 168 1156 c 0
 168 976 313 874 485 870 c 1
 485 0 l 1
EndSplineSet
EndChar

StartChar: parenleft
Encoding: 40 40 281
Width: 768
VWidth: 0
Flags: W
LayerCount: 2
Fore
SplineSet
644 -150 m 1
 644 0 l 1
 366 0 364 153 364 409 c 2
 364 996 l 2
 364 1253 366 1416 644 1416 c 1
 644 1567 l 1
 174 1567 172 1265 172 959 c 2
 172 440 l 2
 172 139 174 -150 644 -150 c 1
EndSplineSet
EndChar

StartChar: parenright
Encoding: 41 41 282
Width: 768
VWidth: 0
Flags: W
LayerCount: 2
Fore
SplineSet
124 -150 m 1
 594 -150 596 152 596 458 c 2
 596 977 l 2
 596 1278 594 1567 124 1567 c 1
 124 1417 l 1
 402 1417 404 1264 404 1008 c 2
 404 421 l 2
 404 164 402 1 124 1 c 1
 124 -150 l 1
EndSplineSet
EndChar

StartChar: percent
Encoding: 37 37 283
Width: 2048
VWidth: 0
Flags: W
LayerCount: 2
Fore
SplineSet
470 794 m 0
 332 794 315 899 315 1040 c 2
 315 1135 l 2
 315 1271 327 1365 470 1365 c 0
 614 1365 627 1271 627 1133 c 2
 627 1040 l 2
 627 899 608 794 470 794 c 0
470 678 m 0
 700 678 772 828 772 1057 c 2
 772 1111 l 1
 770 1344 700 1481 470 1481 c 0
 239 1481 172 1343 172 1110 c 2
 172 1057 l 2
 172 829 240 678 470 678 c 0
1574 97 m 0
 1436 97 1419 202 1419 343 c 2
 1419 438 l 2
 1419 574 1431 668 1574 668 c 0
 1718 668 1731 574 1731 436 c 2
 1731 343 l 2
 1731 202 1712 97 1574 97 c 0
1574 -19 m 0
 1804 -19 1876 131 1876 360 c 2
 1876 414 l 1
 1874 647 1804 784 1574 784 c 0
 1343 784 1276 646 1276 413 c 2
 1276 360 l 2
 1276 132 1344 -19 1574 -19 c 0
668 0 m 1
 822 0 l 1
 1360 1446 l 1
 1211 1446 l 1
 668 0 l 1
EndSplineSet
EndChar

StartChar: period
Encoding: 46 46 284
Width: 628
VWidth: 0
Flags: W
PickledData: "(dp1
S'com.typemytype.robofont.layerData'
p2
(dp3
S'b'
(dp4
S'name'
p5
S'period'
p6
sS'lib'
p7
(dp8
sS'unicodes'
p9
(tsS'width'
p10
I628
sS'contours'
p11
(tsS'components'
p12
(tsS'anchors'
p13
(tsss."
LayerCount: 2
Fore
SplineSet
186 0 m 1
 442 0 l 1
 442 242 l 1
 186 242 l 1
 186 0 l 1
EndSplineSet
EndChar

StartChar: periodcentered
Encoding: 183 183 285
Width: 412
VWidth: 0
Flags: W
LayerCount: 2
Fore
SplineSet
108 1277 m 1
 313 1277 l 1
 313 1483 l 1
 108 1483 l 1
 108 1277 l 1
EndSplineSet
EndChar

StartChar: perthousand
Encoding: 8240 8240 286
Width: 2886
VWidth: 0
Flags: W
LayerCount: 2
Fore
SplineSet
507 774 m 0
 369 774 352 879 352 1020 c 2
 352 1115 l 2
 352 1251 364 1345 507 1345 c 0
 651 1345 664 1251 664 1113 c 2
 664 1020 l 2
 664 879 645 774 507 774 c 0
507 658 m 0
 737 658 809 808 809 1037 c 2
 809 1091 l 1
 807 1324 737 1461 507 1461 c 0
 276 1461 209 1323 209 1090 c 2
 209 1037 l 2
 209 809 277 658 507 658 c 0
1611 97 m 0
 1473 97 1456 202 1456 343 c 2
 1456 438 l 2
 1456 574 1468 668 1611 668 c 0
 1755 668 1768 574 1768 436 c 2
 1768 343 l 2
 1768 202 1749 97 1611 97 c 0
1611 -19 m 0
 1841 -19 1913 131 1913 360 c 2
 1913 414 l 1
 1911 647 1841 784 1611 784 c 0
 1380 784 1313 646 1313 413 c 2
 1313 360 l 2
 1313 132 1381 -19 1611 -19 c 0
2390 97 m 0
 2252 97 2235 202 2235 343 c 2
 2235 438 l 2
 2235 574 2247 668 2390 668 c 0
 2534 668 2547 574 2547 436 c 2
 2547 343 l 2
 2547 202 2528 97 2390 97 c 0
2390 -19 m 0
 2620 -19 2692 131 2692 360 c 2
 2692 414 l 1
 2690 647 2620 784 2390 784 c 0
 2159 784 2092 646 2092 413 c 2
 2092 360 l 2
 2092 132 2160 -19 2390 -19 c 0
705 0 m 1
 859 0 l 1
 1397 1446 l 1
 1248 1446 l 1
 705 0 l 1
EndSplineSet
EndChar

StartChar: plus
Encoding: 43 43 287
Width: 1024
VWidth: 0
Flags: W
LayerCount: 2
Fore
SplineSet
437 156 m 1
 588 156 l 1
 588 494 l 1
 862 494 l 1
 862 642 l 1
 588 642 l 1
 588 968 l 1
 437 968 l 1
 437 642 l 1
 162 642 l 1
 162 494 l 1
 437 494 l 1
 437 156 l 1
EndSplineSet
EndChar

StartChar: plusminus
Encoding: 177 177 288
Width: 1041
VWidth: 0
Flags: W
LayerCount: 2
Fore
SplineSet
460 334 m 1
 581 334 l 1
 581 611 l 1
 834 611 l 1
 834 726 l 1
 581 726 l 1
 581 992 l 1
 460 992 l 1
 460 726 l 1
 207 726 l 1
 207 611 l 1
 460 611 l 1
 460 334 l 1
207 0 m 1
 834 0 l 1
 834 120 l 1
 207 120 l 1
 207 0 l 1
EndSplineSet
EndChar

StartChar: product
Encoding: 8719 8719 289
Width: 1792
VWidth: 0
Flags: W
LayerCount: 2
Fore
SplineSet
660 319 m 1
 791 319 l 1
 791 652 l 1
 969 652 l 2
 1189 652 1245 760 1245 894 c 2
 1245 908 l 1
 1241 1082 1139 1153 982 1153 c 2
 660 1153 l 1
 660 319 l 1
791 742 m 1
 791 1062 l 1
 986 1062 l 2
 1104 1062 1113 960 1113 901 c 2
 1113 877 l 1
 1112 814 1091 742 977 742 c 2
 791 742 l 1
898 82 m 0
 534 82 269 357 269 722 c 0
 269 1086 534 1361 898 1361 c 0
 1264 1361 1526 1086 1526 722 c 0
 1526 357 1264 82 898 82 c 0
896 -14 m 0
 1312 -14 1632 303 1632 722 c 0
 1632 1139 1312 1456 896 1456 c 0
 483 1456 160 1139 160 722 c 0
 160 303 483 -14 896 -14 c 0
EndSplineSet
EndChar

StartChar: q
Encoding: 113 113 290
Width: 1200
VWidth: 0
Flags: W
LayerCount: 2
Fore
SplineSet
826 -408 m 1
 1014 -408 l 1
 1014 1060 l 1
 826 1060 l 1
 826 975 l 1
 796 1025 668 1080 560 1080 c 0
 284 1080 148 941 148 728 c 2
 148 314 l 2
 148 110 302 -22 573 -22 c 0
 646 -22 761 -3 826 47 c 1
 826 -408 l 1
585 122 m 0
 447 122 336 157 336 284 c 2
 336 748 l 2
 336 878 440 936 588 936 c 0
 755 936 826 869 826 810 c 2
 826 201 l 1
 816 180 725 122 585 122 c 0
EndSplineSet
EndChar

StartChar: question
Encoding: 63 63 291
Width: 1240
VWidth: 0
Flags: W
PickledData: "(dp1
S'com.typemytype.robofont.layerData'
p2
(dp3
S'b'
(dp4
S'name'
p5
S'question'
p6
sS'lib'
p7
(dp8
sS'unicodes'
p9
(tsS'width'
p10
I1240
sS'contours'
p11
(tsS'components'
p12
(tsS'anchors'
p13
(tsss."
LayerCount: 2
Fore
SplineSet
466 431 m 1
 626 431 l 1
 834 650 l 2
 989 814 1096 931 1096 1114 c 0
 1096 1277 1005 1468 657 1468 c 0
 316 1468 179 1374 179 1071 c 2
 179 1039 l 1
 376 1039 l 1
 376 1039 376 1091 376 1092 c 0
 376 1225 441 1306 657 1306 c 0
 836 1306 883 1222 883 1103 c 0
 883 986 825 909 740 795 c 2
 466 431 l 1
440 0 m 1
 644 0 l 1
 644 206 l 1
 440 206 l 1
 440 0 l 1
EndSplineSet
EndChar

StartChar: quotedbl
Encoding: 34 34 293
Width: 890
VWidth: 0
Flags: W
PickledData: "(dp1
S'com.typemytype.robofont.layerData'
p2
(dp3
S'b'
(dp4
S'name'
p5
S'quotedbl'
p6
sS'lib'
p7
(dp8
sS'unicodes'
p9
(tsS'width'
p10
I890
sS'contours'
p11
(tsS'components'
p12
(tsS'anchors'
p13
(tsss."
LayerCount: 2
Fore
SplineSet
220 930 m 1
 332 930 l 1
 381 1506 l 1
 176 1506 l 1
 220 930 l 1
553 930 m 1
 665 930 l 1
 714 1506 l 1
 509 1506 l 1
 553 930 l 1
EndSplineSet
EndChar

StartChar: quotesingle
Encoding: 39 39 300
Width: 896
VWidth: 0
Flags: W
PickledData: "(dp1
S'com.typemytype.robofont.layerData'
p2
(dp3
S'b'
(dp4
S'name'
p5
S'quotesingle'
p6
sS'lib'
p7
(dp8
sS'unicodes'
p9
(tsS'width'
p10
I896
sS'contours'
p11
(tsS'components'
p12
(tsS'anchors'
p13
(tsss."
LayerCount: 2
Fore
SplineSet
223 930 m 1
 335 930 l 1
 384 1506 l 1
 179 1506 l 1
 223 930 l 1
EndSplineSet
EndChar

StartChar: r
Encoding: 114 114 301
Width: 794
VWidth: 0
Flags: W
LayerCount: 2
Fore
SplineSet
186 0 m 1
 374 0 l 1
 374 742 l 2
 374 828 555 914 736 914 c 1
 742 1075 l 1
 652 1075 425 1047 374 910 c 1
 374 1060 l 1
 186 1060 l 1
 186 0 l 1
397 0 m 0
397 0 m 0
EndSplineSet
EndChar

StartChar: registered
Encoding: 174 174 305
Width: 1784
VWidth: 0
Flags: W
PickledData: "(dp1
S'com.typemytype.robofont.layerData'
p2
(dp3
S'b'
(dp4
S'name'
p5
S'registered'
p6
sS'lib'
p7
(dp8
sS'unicodes'
p9
(tsS'width'
p10
I1784
sS'contours'
p11
(tsS'components'
p12
(tsS'anchors'
p13
(tsss."
LayerCount: 2
Fore
SplineSet
596 319 m 1
 727 319 l 1
 727 652 l 1
 986 652 l 1
 1166 319 l 1
 1294 319 l 1
 1110 666 l 1
 1202 691 1262 760 1262 894 c 2
 1262 908 l 1
 1258 1082 1156 1153 999 1153 c 2
 596 1153 l 1
 596 319 l 1
727 742 m 1
 727 1062 l 1
 1003 1062 l 2
 1121 1062 1130 960 1130 901 c 2
 1130 877 l 1
 1129 814 1108 742 994 742 c 2
 727 742 l 1
894 82 m 0
 530 82 265 357 265 722 c 0
 265 1086 530 1361 894 1361 c 0
 1260 1361 1522 1086 1522 722 c 0
 1522 357 1260 82 894 82 c 0
892 -14 m 0
 1308 -14 1628 303 1628 722 c 0
 1628 1139 1308 1456 892 1456 c 0
 479 1456 156 1139 156 722 c 0
 156 303 479 -14 892 -14 c 0
EndSplineSet
EndChar

StartChar: ring
Encoding: 730 730 306
Width: 512
VWidth: 0
Flags: W
LayerCount: 2
Fore
SplineSet
256 1215 m 0
 199 1215 147 1241 147 1329 c 0
 147 1416 200 1441 256 1441 c 0
 314 1441 365 1414 365 1327 c 0
 365 1240 313 1215 256 1215 c 0
256 1150 m 0
 356 1150 450 1205 450 1328 c 0
 450 1451 356 1506 256 1506 c 0
 156 1506 62 1451 62 1328 c 0
 62 1205 156 1150 256 1150 c 0
256 0 m 0
EndSplineSet
EndChar

StartChar: s
Encoding: 115 115 307
Width: 992
VWidth: 0
Flags: W
PickledData: "(dp1
S'com.typemytype.robofont.layerData'
p2
(dp3
S'b'
(dp4
S'name'
p5
S's'
sS'lib'
p6
(dp7
sS'unicodes'
p8
(tsS'width'
p9
I992
sS'contours'
p10
(tsS'components'
p11
(tsS'anchors'
p12
(tsss."
LayerCount: 2
Fore
SplineSet
528 -22 m 0
 780 -22 876 116 876 283 c 0
 876 448 842 515 664 585 c 2
 415 683 l 1
 338 710 322 736 324 810 c 0
 327 896 361 936 528 936 c 0
 617 936 746 903 807 878 c 1
 850 1022 l 1
 772 1053 642 1080 493 1080 c 0
 246 1080 158 976 150 825 c 0
 141 669 188 595 356 536 c 1
 608 443 l 2
 708 406 716 363 716 281 c 0
 716 192 670 122 503 122 c 0
 359 122 235 176 188 202 c 1
 142 64 l 1
 190 37 330 -22 528 -22 c 0
488 0 m 0
488 0 m 0
EndSplineSet
EndChar

StartChar: section
Encoding: 167 167 313
Width: 1002
VWidth: 0
Flags: W
PickledData: "(dp1
S'com.typemytype.robofont.layerData'
p2
(dp3
S'b'
(dp4
S'name'
p5
S'section'
p6
sS'lib'
p7
(dp8
sS'unicodes'
p9
(tsS'width'
p10
I1002
sS'contours'
p11
(tsS'components'
p12
(tsS'anchors'
p13
(tsss."
LayerCount: 2
Fore
SplineSet
542 -22 m 0
 801 -22 900 116 900 283 c 0
 900 376 889 439 846 487 c 1
 883 539 900 602 900 671 c 0
 900 836 865 903 682 973 c 2
 425 1071 l 2
 347 1101 329 1124 332 1198 c 0
 335 1284 370 1324 542 1324 c 0
 633 1324 766 1291 829 1266 c 1
 874 1410 l 1
 793 1441 659 1468 506 1468 c 0
 251 1468 161 1364 152 1213 c 0
 146 1113 164 1047 223 997 c 1
 177 953 156 894 152 825 c 0
 143 669 192 598 365 536 c 2
 624 443 l 2
 727 406 736 363 736 281 c 0
 736 192 688 122 516 122 c 0
 368 122 240 176 191 202 c 1
 144 64 l 1
 194 37 338 -22 542 -22 c 0
716 571 m 1
 425 683 l 2
 347 713 329 746 332 820 c 0
 333.176470588 862.352941176 358.333333333 924 365 924 c 1
 624 831 l 2
 727 794 736 751 736 669 c 0
 736 637 730 602 716 571 c 1
EndSplineSet
EndChar

StartChar: seven
Encoding: 55 55 315
Width: 1250
VWidth: 0
Flags: W
LayerCount: 2
Fore
SplineSet
369 0 m 1
 580 0 l 1
 1070 1289 l 1
 1070 1446 l 1
 189 1446 l 1
 189 1291 l 1
 869 1291 l 1
 369 0 l 1
EndSplineSet
EndChar

StartChar: six
Encoding: 54 54 316
Width: 1250
VWidth: 0
Flags: W
PickledData: "(dp1
S'com.typemytype.robofont.layerData'
p2
(dp3
S'b'
(dp4
S'name'
p5
S'six'
p6
sS'lib'
p7
(dp8
sS'unicodes'
p9
(tsS'width'
p10
I1250
sS'contours'
p11
(tsS'components'
p12
(tsS'anchors'
p13
(tsss."
LayerCount: 2
Fore
SplineSet
833 1446 m 1
 633 1446 l 1
 319 897 l 1
 225 728 178 568 178 426 c 0
 178 106 371 -22 647 -22 c 0
 923 -22 1132 104 1132 422 c 0
 1132 752 950 878 654 878 c 0
 594 878 519 860 476 841 c 1
 833 1446 l 1
650 715 m 0
 829 715 945 668 945 422 c 0
 945 197 830 140 650 140 c 0
 469 140 365 197 365 425 c 0
 365 646 469 715 650 715 c 0
EndSplineSet
EndChar

StartChar: slash
Encoding: 47 47 317
Width: 768
VWidth: 0
Flags: W
PickledData: "(dp1
S'com.typemytype.robofont.layerData'
p2
(dp3
S'b'
(dp4
S'name'
p5
S'backslash'
p6
sS'lib'
p7
(dp8
sS'unicodes'
p9
(tsS'width'
p10
I768
sS'contours'
p11
((dp12
S'points'
p13
((dp14
S'segmentType'
p15
S'line'
p16
sS'x'
F521
sS'smooth'
p17
I00
sS'y'
F0
s(dp18
g15
S'line'
p19
sS'x'
F704
sg17
I00
sS'y'
F0
s(dp20
g15
S'line'
p21
sS'x'
F251
sg17
I00
sS'y'
F1506
s(dp22
g15
S'line'
p23
sS'x'
F64
sg17
I00
sS'y'
F1506
stp24
stp25
sS'components'
p26
(tsS'anchors'
p27
(tsss."
LayerCount: 2
Fore
SplineSet
521 1506 m 1
 704 1506 l 1
 251 0 l 1
 64 0 l 1
 521 1506 l 1
EndSplineSet
EndChar

StartChar: sterling
Encoding: 163 163 319
Width: 1273
VWidth: 0
Flags: W
PickledData: "(dp1
S'com.typemytype.robofont.layerData'
p2
(dp3
S'b'
(dp4
S'name'
p5
S'sterling'
p6
sS'lib'
p7
(dp8
sS'unicodes'
p9
(tsS'width'
p10
I1273
sS'contours'
p11
((dp12
S'points'
p13
((dp14
S'segmentType'
p15
S'line'
p16
sS'x'
F255
sS'smooth'
p17
I00
sS'y'
F0
s(dp18
g15
S'line'
p19
sS'x'
F1030
sg17
I00
sS'y'
F0
s(dp20
g15
S'line'
p21
sS'x'
F1030
sg17
I00
sS'y'
F162
s(dp22
g15
S'line'
p23
sS'x'
F456
sg17
I00
sS'y'
F162
s(dp24
g15
S'line'
p25
sS'x'
F508.22500000000002
sg17
I00
sS'y'
F668
s(dp26
g15
S'line'
p27
sS'x'
F1006
sg17
I00
sS'y'
F668
s(dp28
g15
S'line'
p29
sS'x'
F1006
sg17
I00
sS'y'
F809
s(dp30
g15
S'line'
p31
sS'x'
F522.77800000000002
sg17
I00
sS'y'
F809
s(dp32
g15
S'line'
p33
sS'x'
F546
sg17
I01
sS'y'
F1034
s(dp34
S'y'
F1355
sS'x'
F579
sg17
I00
s(dp35
S'y'
F1396
sS'x'
F764
sg17
I00
s(dp36
g15
S'curve'
p37
sS'x'
F1017
sg17
I00
sS'y'
F1241
s(dp38
g15
S'line'
p39
sS'x'
F1072
sg17
I00
sS'y'
F1396
s(dp40
S'y'
F1429
sS'x'
F1038
sg17
I00
s(dp41
S'y'
F1484
sS'x'
F959
sg17
I00
s(dp42
g15
S'curve'
p43
sS'x'
F791
sg17
I01
sS'y'
F1484
s(dp44
S'y'
F1484
sS'x'
F466
sg17
I00
s(dp45
S'y'
F1307
sS'x'
F376
sg17
I00
s(dp46
g15
S'curve'
p47
sS'x'
F351
sg17
I01
sS'y'
F1035
s(dp48
g15
S'line'
p49
sS'x'
F330.03800000000001
sg17
I00
sS'y'
F809
s(dp50
g15
S'line'
p51
sS'x'
F160
sg17
I00
sS'y'
F809
s(dp52
g15
S'line'
p53
sS'x'
F160
sg17
I00
sS'y'
F668
s(dp54
g15
S'line'
p55
sS'x'
F316.959
sg17
I00
sS'y'
F668
stp56
stp57
sS'components'
p58
(tsS'anchors'
p59
(tsss."
LayerCount: 2
Fore
SplineSet
261 0 m 1
 1036 0 l 1
 1036 162 l 1
 462 162 l 1
 514 668 l 1
 1012 668 l 1
 1012 809 l 1
 529 809 l 1
 559 1104 l 2
 577 1275 666 1327 770 1327 c 0
 871 1327 984 1278 1023 1259 c 1
 1077 1398 l 1
 951 1459 841 1484 748 1484 c 0
 514 1484 385 1319 367 1125 c 1
 336 809 l 1
 166 809 l 1
 166 668 l 1
 323 668 l 1
 261 0 l 1
EndSplineSet
EndChar

StartChar: t
Encoding: 116 116 320
Width: 840
VWidth: 0
Flags: W
LayerCount: 2
Fore
SplineSet
676 -8 m 2
 704 -8 l 1
 724 150 l 1
 703 150 l 2
 524 150 445 175 445 315 c 2
 445 918 l 1
 711 918 l 1
 711 1060 l 1
 445 1060 l 1
 445 1388 l 1
 287 1388 l 1
 264 1060 l 1
 80 1060 l 1
 80 918 l 1
 257 918 l 1
 257 303 l 2
 257 70 386 -8 676 -8 c 2
420 0 m 0
420 0 m 0
EndSplineSet
EndChar

StartChar: tbar
Encoding: 359 359 321
Width: 840
VWidth: 0
Flags: W
LayerCount: 2
Fore
SplineSet
58 560.4 m 1
 774 560.4 l 1
 774 689.4 l 1
 58 689.4 l 1
 58 560.4 l 1
EndSplineSet
Refer: 320 116 N 1 0 0 1 0 0 2
EndChar

StartChar: thorn
Encoding: 254 254 324
Width: 1194
VWidth: 0
Flags: W
LayerCount: 2
Fore
SplineSet
177 -408 m 1
 365 -408 l 1
 365 34 l 1
 416 8 496 -24 615 -24 c 0
 891 -24 1044 131 1044 344 c 2
 1044 729 l 2
 1044 933 910 1076 639 1076 c 0
 530 1076 425 1039 365 994 c 1
 365 1506 l 1
 179 1506 l 1
 177 -408 l 1
603 117 m 0
 494 117 413 152 365 179 c 1
 365 824 l 1
 382 850 477 934 610 934 c 0
 748 934 856 869 856 742 c 2
 856 324 l 2
 856 194 751 117 603 117 c 0
EndSplineSet
EndChar

StartChar: three
Encoding: 51 51 325
Width: 1250
VWidth: 0
Flags: W
PickledData: "(dp1
S'com.typemytype.robofont.layerData'
p2
(dp3
S'b'
(dp4
S'name'
p5
S'three'
p6
sS'lib'
p7
(dp8
sS'unicodes'
p9
(tsS'width'
p10
I1250
sS'contours'
p11
((dp12
S'points'
p13
((dp14
S'segmentType'
p15
S'curve'
p16
sS'x'
F690
sS'smooth'
p17
I01
sS'y'
F-22
s(dp18
S'y'
F-22
sS'x'
F974
sg17
I00
s(dp19
S'y'
F122
sS'x'
F1128
sg17
I00
s(dp20
g15
S'curve'
p21
sS'x'
F1128
sg17
I01
sS'y'
F398
s(dp22
S'y'
F642
sS'x'
F1128
sg17
I00
s(dp23
S'y'
F734
sS'x'
F1032
sg17
I00
s(dp24
g15
S'curve'
p25
sS'x'
F867
sg17
I00
sS'y'
F768
s(dp26
S'y'
F795
sS'x'
F1035
sg17
I00
s(dp27
S'y'
F901
sS'x'
F1099
sg17
I00
s(dp28
g15
S'curve'
p29
sS'x'
F1099
sg17
I01
sS'y'
F1091
s(dp30
S'y'
F1354
sS'x'
F1099
sg17
I00
s(dp31
S'y'
F1468
sS'x'
F928
sg17
I00
s(dp32
g15
S'curve'
p33
sS'x'
F679
sg17
I01
sS'y'
F1468
s(dp34
S'y'
F1468
sS'x'
F422
sg17
I00
s(dp35
S'y'
F1403
sS'x'
F231
sg17
I00
s(dp36
g15
S'curve'
p37
sS'x'
F224
sg17
I00
sS'y'
F1015
s(dp38
g15
S'line'
p39
sS'x'
F416
sg17
I00
sS'y'
F1015
s(dp40
S'y'
F1283
sS'x'
F414
sg17
I00
s(dp41
S'y'
F1306
sS'x'
F502
sg17
I00
s(dp42
g15
S'curve'
p43
sS'x'
F680
sg17
I01
sS'y'
F1306
s(dp44
S'y'
F1306
sS'x'
F852
sg17
I00
s(dp45
S'y'
F1224
sS'x'
F911
sg17
I00
s(dp46
g15
S'curve'
p47
sS'x'
F911
sg17
I01
sS'y'
F1088
s(dp48
S'y'
F924
sS'x'
F911
sg17
I00
s(dp49
S'y'
F840
sS'x'
F898
sg17
I00
s(dp50
g15
S'curve'
p51
sS'x'
F589
sg17
I00
sS'y'
F840
s(dp52
g15
S'line'
p53
sS'x'
F589
sg17
I00
sS'y'
F691
s(dp54
S'y'
F691
sS'x'
F889
sg17
I00
s(dp55
S'y'
F622
sS'x'
F937
sg17
I00
s(dp56
g15
S'curve'
p57
sS'x'
F937
sg17
I01
sS'y'
F399
s(dp58
S'y'
F230
sS'x'
F937
sg17
I00
s(dp59
S'y'
F140
sS'x'
F874
sg17
I00
s(dp60
g15
S'curve'
p61
sS'x'
F701
sg17
I01
sS'y'
F140
s(dp62
S'y'
F140
sS'x'
F502
sg17
I00
s(dp63
S'y'
F188
sS'x'
F408
sg17
I00
s(dp64
g15
S'curve'
p65
sS'x'
F397
sg17
I00
sS'y'
F461
s(dp66
g15
S'line'
p67
sS'x'
F205
sg17
I00
sS'y'
F461
s(dp68
S'y'
F93
sS'x'
F230
sg17
I00
s(dp69
S'y'
F-22
sS'x'
F368
sg17
I00
stp70
stp71
sS'components'
p72
(tsS'anchors'
p73
(tsss."
LayerCount: 2
Fore
SplineSet
679 -22 m 0
 963 -22 1126 122 1126 398 c 0
 1126 642 1030 734 865 768 c 1
 1033 795 1097 901 1097 1091 c 0
 1097 1354 924 1468 675 1468 c 0
 418 1468 218 1393 218 1025 c 1
 410 1025 l 1
 410 1273 498 1306 676 1306 c 0
 848 1306 909 1224 909 1088 c 0
 909 924 896 840 587 840 c 1
 587 691 l 1
 887 691 935 622 935 399 c 0
 935 230 863 140 690 140 c 0
 491 140 416 189 400 431 c 1
 208 431 l 1
 242 91 357 -22 679 -22 c 0
EndSplineSet
EndChar

StartChar: threequarters
Encoding: 190 190 326
Width: 2047
VWidth: 0
Flags: W
PickledData: "(dp1
S'com.typemytype.robofont.layerData'
p2
(dp3
S'b'
(dp4
S'name'
p5
S'threequarters'
p6
sS'lib'
p7
(dp8
sS'unicodes'
p9
(tsS'width'
p10
I2047
sS'contours'
p11
(tsS'components'
p12
(tsS'anchors'
p13
(tsss."
LayerCount: 2
Fore
SplineSet
1655 0 m 1
 1768 0 l 1
 1768 207 l 1
 1912 207 l 1
 1912 298 l 1
 1768 298 l 1
 1768 533 l 1
 1655 533 l 1
 1655 298 l 1
 1373 298 l 1
 1721 892 l 1
 1580 892 l 1
 1221 299 l 1
 1221 207 l 1
 1655 207 l 1
 1655 0 l 1
687 0 m 1
 819 0 l 1
 1497 1446 l 1
 1371 1446 l 1
 687 0 l 1
540 653 m 0
 739 653 847 736 847 896 c 0
 847 1037 780 1090 664 1110 c 1
 782 1126 827 1187 827 1297 c 0
 827 1449 706 1515 532 1515 c 0
 351 1515 217 1477 212 1253 c 1
 347 1253 l 1
 346 1408 408 1421 533 1421 c 0
 654 1421 695 1374 695 1295 c 0
 695 1200 685 1151 469 1151 c 1
 469 1066 l 1
 679 1066 713 1025 713 897 c 0
 713 799 669 746 547 746 c 0
 408 746 342 774 334 932 c 1
 199 932 l 1
 217 719 314 653 540 653 c 0
EndSplineSet
EndChar

StartChar: tilde
Encoding: 732 732 327
Width: 512
VWidth: 0
Flags: W
PickledData: "(dp1
S'com.typemytype.robofont.layerData'
p2
(dp3
S'b'
(dp4
S'name'
p5
S'tilde'
p6
sS'lib'
p7
(dp8
sS'unicodes'
p9
(tsS'width'
p10
I512
sS'contours'
p11
(tsS'components'
p12
(tsS'anchors'
p13
(tsss."
LayerCount: 2
Fore
SplineSet
145 1263 m 0
 282 1263 314 1370 385 1370 c 0
 426 1370 455 1339 455 1277 c 1
 552 1277 l 1
 552 1442 486 1506 366 1506 c 0
 229 1506 197 1399 126 1399 c 0
 85 1399 56 1430 56 1492 c 1
 -41 1492 l 1
 -41 1327 25 1263 145 1263 c 0
255.5 0 m 0
EndSplineSet
EndChar

StartChar: trademark
Encoding: 8482 8482 328
Width: 1843
VWidth: 0
Flags: W
LayerCount: 2
Fore
SplineSet
845 766 m 1
 970 766 l 1
 970 1329 l 1
 1149 931 l 1
 1310 931 l 1
 1482 1329 l 1
 1482 766 l 1
 1609 766 l 1
 1609 1446 l 1
 1413 1446 l 1
 1227 1033 l 1
 1043 1446 l 1
 845 1446 l 1
 845 766 l 1
345 766 m 1
 480 766 l 1
 480 1332 l 1
 692 1332 l 1
 692 1446 l 1
 133 1446 l 1
 133 1332 l 1
 345 1332 l 1
 345 766 l 1
EndSplineSet
EndChar

StartChar: two
Encoding: 50 50 329
Width: 1250
VWidth: 0
Flags: W
PickledData: "(dp1
S'com.typemytype.robofont.layerData'
p2
(dp3
S'b'
(dp4
S'name'
p5
S'two'
p6
sS'lib'
p7
(dp8
sS'unicodes'
p9
(tsS'width'
p10
I1250
sS'contours'
p11
(tsS'components'
p12
(tsS'anchors'
p13
(tsss."
LayerCount: 2
Fore
SplineSet
231 0 m 1
 1087 0 l 1
 1087 156 l 1
 441 156 l 1
 842 581 l 2
 988 735 1095 834 1095 1059 c 0
 1095 1289 950 1468 639 1468 c 0
 347 1468 164 1342 164 1024 c 1
 365 1024 l 1
 365 1259 443 1306 654 1306 c 0
 834 1306 907 1240 905 1049 c 0
 904 912 843 844 700 689 c 2
 212 158 l 1
 231 0 l 1
EndSplineSet
EndChar

StartChar: u
Encoding: 117 117 330
Width: 1224
VWidth: 0
Flags: W
LayerCount: 2
Fore
SplineSet
541 -22 m 0
 695 -22 796 38 850 133 c 1
 870 0 l 1
 1038 0 l 1
 1038 1060 l 1
 850 1060 l 1
 850 309 l 2
 850 220 762 122 578 122 c 0
 447 122 364 184 364 289 c 2
 364 1060 l 1
 176 1060 l 1
 176 290 l 2
 176 122 280 -22 541 -22 c 0
612 0 m 0
1102 10 m 0
EndSplineSet
EndChar

StartChar: underscore
Encoding: 95 95 338
Width: 929
VWidth: 0
Flags: W
PickledData: "(dp1
S'com.typemytype.robofont.layerData'
p2
(dp3
S'b'
(dp4
S'name'
p5
S'underscore'
p6
sS'lib'
p7
(dp8
sS'unicodes'
p9
(tsS'width'
p10
I929
sS'contours'
p11
(tsS'components'
p12
(tsS'anchors'
p13
(tsss."
LayerCount: 2
Fore
SplineSet
14 -104 m 1
 915 -104 l 1
 915 46 l 1
 14 46 l 1
 14 -104 l 1
EndSplineSet
EndChar

StartChar: uni00AD
Encoding: 173 173 340
Width: 1024
VWidth: 0
Flags: W
LayerCount: 2
Fore
SplineSet
162 494 m 1
 862 494 l 1
 862 642 l 1
 162 642 l 1
 162 494 l 1
EndSplineSet
EndChar

StartChar: uni00B2
Encoding: 178 178 341
Width: 1052
VWidth: 0
Flags: W
LayerCount: 2
Fore
SplineSet
230.312 449 m 1
 815.142 449 l 1
 815.142 548.741 l 1
 350.046 548.741 l 1
 669.536 865.403 l 1
 765.202 963.75 819.955 1041.87 819.955 1198.8 c 0
 819.955 1359.23 702.628 1484.08 515.507 1484.08 c 0
 339.817 1484.08 190 1396.2 190 1174.39 c 1
 310.937 1174.39 l 1
 310.937 1338.3 397.578 1387.13 524.532 1387.13 c 0
 632.834 1387.13 691.196 1318.08 697.814 1212.75 c 0
 704.433 1103.25 670.739 1047.45 578.081 947.707 c 2
 218.881 559.204 l 1
 230.312 449 l 1
EndSplineSet
EndChar

StartChar: uni00B3
Encoding: 179 179 342
Width: 1173
VWidth: 0
Flags: W
LayerCount: 2
Fore
SplineSet
589.692 418.031 m 0
 790.186 418.031 947.616 509.943 947.616 719.221 c 0
 947.616 891.733 865.018 948.294 735.121 972.333 c 1
 867.842 997.078 927.143 1072.02 927.143 1206.36 c 0
 927.143 1394.42 766.889 1483.51 591.104 1483.51 c 0
 388.492 1483.51 218.355 1427.65 213.413 1153.33 c 1
 348.958 1153.33 l 1
 347.547 1342.81 442.852 1378.16 589.692 1378.16 c 0
 739.356 1378.16 794.422 1300.39 794.422 1204.23 c 0
 794.422 1102.42 788.068 1020.41 499.329 1020.41 c 1
 499.329 920.721 l 1
 753.476 920.721 812.776 862.038 812.776 711.443 c 0
 812.776 584.888 719.59 524.791 597.458 524.791 c 0
 456.971 524.791 344.017 546.709 338.369 760.935 c 1
 200 760.935 l 1
 210.59 486.612 358.136 418.031 589.692 418.031 c 0
EndSplineSet
EndChar

StartChar: uni00B9
Encoding: 185 185 344
Width: 1050
VWidth: 0
Flags: W
LayerCount: 2
Fore
SplineSet
207 654 m 1
 843 654 l 1
 843 755 l 1
 612 755 l 1
 612 1505 l 1
 505 1505 l 1
 213 1472 l 1
 225 1368 l 1
 481 1394 l 1
 481 755 l 1
 207 755 l 1
 207 654 l 1
EndSplineSet
EndChar

StartChar: uni0237
Encoding: 567 567 385
Width: 602
VWidth: 0
Flags: W
LayerCount: 2
Fore
SplineSet
32 -353 m 1
 98 -353 l 2
 304 -353 420 -305 420 7 c 2
 420 1060 l 1
 232 1060 l 1
 232 -4 l 2
 232 -174 175 -197 42 -197 c 2
 13 -197 l 1
 32 -353 l 1
301 0 m 0
EndSplineSet
EndChar

StartChar: uni02C9
Encoding: 713 713 386
Width: 513
VWidth: 0
Flags: W
LayerCount: 2
Fore
SplineSet
56 1354 m 1
 457 1354 l 1
 457 1506 l 1
 56 1506 l 1
 56 1354 l 1
EndSplineSet
EndChar

StartChar: uni0307
Encoding: 775 775 387
Width: 412
VWidth: 0
Flags: W
LayerCount: 2
Fore
SplineSet
108 1277 m 1
 313 1277 l 1
 313 1483 l 1
 108 1483 l 1
 108 1277 l 1
210.5 0 m 0
EndSplineSet
EndChar

StartChar: uni0311
Encoding: 785 785 388
Width: 512
VWidth: 0
Flags: W
LayerCount: 2
Fore
SplineSet
30 1294 m 1
 135 1294 l 1
 135 1363 183 1410 256 1410 c 0
 325 1410 377 1360 377 1294 c 1
 482 1294 l 1
 482 1409 395 1506 256 1506 c 0
 117 1506 30 1409 30 1294 c 1
EndSplineSet
EndChar

StartChar: uni2206
Encoding: 8710 8710 404
Width: 1104
VWidth: 0
Flags: W
LayerCount: 2
Fore
SplineSet
82 350 m 1
 1022 350 l 1
 1022 474 l 1
 650 1505 l 1
 480 1505 l 1
 82 474 l 1
 82 350 l 1
263 494 m 1
 567 1335 l 1
 846 494 l 1
 263 494 l 1
EndSplineSet
EndChar

StartChar: uni2219
Encoding: 8729 8729 406
Width: 412
VWidth: 0
Flags: W
PickledData: "(dp1
S'com.typemytype.robofont.layerData'
p2
(dp3
S'b'
(dp4
S'name'
p5
S'uni2219'
p6
sS'lib'
p7
(dp8
sS'unicodes'
p9
(tsS'width'
p10
I412
sS'contours'
p11
(tsS'components'
p12
(tsS'anchors'
p13
(tsss."
LayerCount: 2
Fore
SplineSet
108 1277 m 1
 313 1277 l 1
 313 1483 l 1
 108 1483 l 1
 108 1277 l 1
210.5 0 m 0
EndSplineSet
EndChar

StartChar: uniFB00
Encoding: 65536 -1 407
Width: 1513
VWidth: 0
Flags: W
LayerCount: 2
Fore
SplineSet
287 0 m 1
 475 0 l 1
 475 918 l 1
 1010 918 l 1
 1010 0 l 1
 1198 0 l 1
 1198 918 l 1
 1455 918 l 1
 1455 1060 l 1
 1198 1060 l 1
 1198 1240 l 2
 1198 1316 1236 1373 1351 1373 c 2
 1467 1373 l 1
 1455 1506 l 1
 1336 1506 l 2
 1118 1506 1010 1420 1010 1222 c 2
 1010 1060 l 1
 475 1060 l 1
 475 1240 l 2
 475 1316 513 1373 628 1373 c 2
 744 1373 l 1
 732 1506 l 1
 613 1506 l 2
 395 1506 287 1420 287 1222 c 2
 287 1060 l 1
 110 1060 l 1
 110 918 l 1
 287 918 l 1
 287 0 l 1
EndSplineSet
EndChar

StartChar: uniFB01
Encoding: 64257 64257 408
Width: 1248
VWidth: 0
Flags: W
LayerCount: 2
Fore
SplineSet
263 0 m 1
 451 0 l 1
 451 943 l 1
 864 943 l 1
 864 0 l 1
 1051 0 l 1
 1051 1060 l 1
 451 1060 l 1
 451 1180 l 2
 451 1256 457 1313 592 1313 c 2
 663 1313 l 1
 663 1446 l 1
 557 1446 l 2
 339 1446 263 1347 263 1149 c 2
 263 1060 l 1
 101 1060 l 1
 101 943 l 1
 263 943 l 1
 263 0 l 1
853 1233 m 1
 1058 1233 l 1
 1058 1434 l 1
 853 1434 l 1
 853 1233 l 1
EndSplineSet
EndChar

StartChar: uniFB02
Encoding: 64258 64258 409
Width: 1494
VWidth: 0
Flags: W
LayerCount: 2
Fore
SplineSet
1320 -8 m 2
 1374 -8 l 1
 1396 150 l 1
 1363 150 l 2
 1206 150 1168 183 1168 356 c 2
 1168 1505 l 1
 613 1506 l 2
 395 1506 287 1420 287 1222 c 2
 287 1060 l 1
 110 1060 l 1
 110 918 l 1
 287 918 l 1
 287 0 l 1
 475 0 l 1
 475 918 l 1
 732 918 l 1
 732 1060 l 1
 475 1060 l 1
 475 1240 l 2
 475 1316 513 1373 628 1373 c 2
 980 1373 l 1
 980 358 l 2
 980 49 1088 -8 1320 -8 c 2
EndSplineSet
EndChar

StartChar: v
Encoding: 118 118 415
Width: 1104
VWidth: 0
Flags: W
LayerCount: 2
Fore
SplineSet
475 0 m 1
 665 0 l 1
 1040 1060 l 1
 856 1060 l 1
 572 200 l 1
 253 1060 l 1
 64 1060 l 1
 475 0 l 1
EndSplineSet
EndChar

StartChar: w
Encoding: 119 119 416
Width: 1614
VWidth: 0
Flags: W
LayerCount: 2
Fore
SplineSet
357 0 m 1
 535 0 l 1
 806 845 l 1
 1077 0 l 1
 1252 0 l 1
 1562 1060 l 1
 1388 1060 l 1
 1161 228 l 1
 895 1060 l 1
 714 1060 l 1
 459 228 l 1
 224 1060 l 1
 52 1060 l 1
 357 0 l 1
807 0 m 0
EndSplineSet
EndChar

StartChar: x
Encoding: 120 120 421
Width: 1056
VWidth: 0
Flags: W
LayerCount: 2
Fore
SplineSet
64 0 m 1
 251 0 l 1
 534 403 l 1
 817 0 l 1
 1000 0 l 1
 626 535 l 1
 995 1060 l 1
 814 1060 l 1
 535 666 l 1
 259 1060 l 1
 70 1060 l 1
 441 533 l 1
 64 0 l 1
EndSplineSet
EndChar

StartChar: y
Encoding: 121 121 422
Width: 1118
VWidth: 0
Flags: W
LayerCount: 2
Fore
SplineSet
218 -322 m 1
 323 -322 l 2
 544 -322 619 -227 712 45 c 2
 1060 1060 l 1
 870 1060 l 1
 599 216 l 1
 275 1060 l 1
 76 1060 l 1
 513 4 l 1
 473 -145 397 -175 316 -175 c 2
 218 -175 l 1
 218 -322 l 1
559 0 m 0
EndSplineSet
EndChar

StartChar: yen
Encoding: 165 165 426
Width: 1318
VWidth: 0
Flags: W
LayerCount: 2
Fore
SplineSet
260 252 m 1
 1063 252 l 1
 1063 400 l 1
 260 400 l 1
 260 252 l 1
260 560 m 1
 1063 560 l 1
 1063 708 l 1
 260 708 l 1
 260 560 l 1
EndSplineSet
Refer: 116 89 N 1 0 0 1 0 0 2
EndChar

StartChar: z
Encoding: 122 122 428
Width: 964
VWidth: 0
Flags: W
LayerCount: 2
Fore
SplineSet
140 0 m 1
 854 0 l 1
 854 124 l 1
 335 124 l 1
 845 945 l 1
 845 1060 l 1
 158 1060 l 1
 158 936 l 1
 647 936 l 1
 140 118 l 1
 140 0 l 1
482 0 m 0
EndSplineSet
EndChar

StartChar: zero
Encoding: 48 48 432
Width: 1250
VWidth: 0
Flags: W
PickledData: "(dp1
S'com.typemytype.robofont.layerData'
p2
(dp3
S'b'
(dp4
S'name'
p5
S'zero'
p6
sS'lib'
p7
(dp8
sS'unicodes'
p9
(tsS'width'
p10
I1250
sS'contours'
p11
(tsS'components'
p12
(tsS'anchors'
p13
(tsss."
LayerCount: 2
Fore
SplineSet
634 140 m 0
 348 140 334 363 334 619 c 2
 334 816 l 2
 334 1073 350 1306 634 1306 c 0
 920 1306 917 1073 917 816 c 2
 917 619 l 2
 917 363 922 140 634 140 c 0
634 -22 m 0
 1099 -22 1118 353 1118 650 c 2
 1118 777 l 2
 1118 1083 1101 1468 634 1468 c 0
 149 1468 132 1096 132 790 c 2
 132 636 l 2
 132 335 151 -22 634 -22 c 0
EndSplineSet
EndChar
